<svg xmlns="http://www.w3.org/2000/svg" xmlns:xlink="http://www.w3.org/1999/xlink" width="486.818" height="304.668" viewBox="0 0 486.818 304.668">
  <defs>
    <linearGradient id="linear-gradient" x1="-16.986" y1="42.893" x2="-16.986" y2="41.026" gradientUnits="objectBoundingBox">
      <stop offset="0" stop-color="#79bfe5"/>
      <stop offset="0.064" stop-color="#63b6e1"/>
      <stop offset="0.196" stop-color="#2da1d8"/>
      <stop offset="0.231" stop-color="#1e9bd6"/>
      <stop offset="0.53" stop-color="#0075bd"/>
      <stop offset="0.809" stop-color="#005b96"/>
    </linearGradient>
    <linearGradient id="linear-gradient-2" x1="-17.914" y1="703.366" x2="-17.914" y2="673.291" gradientUnits="objectBoundingBox">
      <stop offset="0" stop-color="#171b27"/>
      <stop offset="1" stop-color="#040405"/>
    </linearGradient>
    <linearGradient id="linear-gradient-3" x1="-18.298" y1="714.766" x2="-18.298" y2="684.691" xlink:href="#linear-gradient-2"/>
    <linearGradient id="linear-gradient-4" x1="-47.922" y1="41.995" x2="-47.922" y2="41.7" gradientUnits="objectBoundingBox">
      <stop offset="0" stop-color="#fff" stop-opacity="0"/>
      <stop offset="0.005" stop-color="#fcfcfc" stop-opacity="0.008"/>
      <stop offset="1"/>
    </linearGradient>
    <linearGradient id="linear-gradient-5" x1="-19.248" y1="38.923" x2="-19.248" y2="37.056" xlink:href="#linear-gradient"/>
    <linearGradient id="linear-gradient-6" x1="-20.255" y1="636.684" x2="-20.255" y2="606.609" xlink:href="#linear-gradient-2"/>
    <linearGradient id="linear-gradient-7" x1="-20.639" y1="648.084" x2="-20.639" y2="618.009" xlink:href="#linear-gradient-2"/>
    <linearGradient id="linear-gradient-8" x1="-53.121" y1="38.025" x2="-53.121" y2="37.73" xlink:href="#linear-gradient-4"/>
    <linearGradient id="linear-gradient-9" x1="0.81" y1="0.81" x2="0.2" y2="0.2" gradientUnits="objectBoundingBox">
      <stop offset="0" stop-color="#eeedeb"/>
      <stop offset="0.134" stop-color="#cacac9"/>
      <stop offset="0.211" stop-color="#bcbcbc"/>
      <stop offset="0.441" stop-color="#fff"/>
      <stop offset="0.454" stop-color="#eee"/>
      <stop offset="0.485" stop-color="#cecece"/>
      <stop offset="0.519" stop-color="#b4b4b4"/>
      <stop offset="0.556" stop-color="#a0a0a0"/>
      <stop offset="0.598" stop-color="#919191"/>
      <stop offset="0.649" stop-color="#898989"/>
      <stop offset="0.733" stop-color="#878787"/>
      <stop offset="0.787" stop-color="#adadad"/>
      <stop offset="0.849" stop-color="#d0d0d0"/>
      <stop offset="0.907" stop-color="#eaeaea"/>
      <stop offset="0.959" stop-color="#f9f9f9"/>
      <stop offset="1" stop-color="#fff"/>
    </linearGradient>
    <linearGradient id="linear-gradient-10" x1="0.809" y1="0.809" x2="0.2" y2="0.2" gradientUnits="objectBoundingBox">
      <stop offset="0" stop-color="#fff"/>
      <stop offset="0.041" stop-color="#f9f9f9"/>
      <stop offset="0.093" stop-color="#eaeaea"/>
      <stop offset="0.151" stop-color="#d0d0d0"/>
      <stop offset="0.213" stop-color="#adadad"/>
      <stop offset="0.267" stop-color="#878787"/>
      <stop offset="0.351" stop-color="#898989"/>
      <stop offset="0.402" stop-color="#919191"/>
      <stop offset="0.444" stop-color="#a0a0a0"/>
      <stop offset="0.481" stop-color="#b4b4b4"/>
      <stop offset="0.515" stop-color="#cecece"/>
      <stop offset="0.546" stop-color="#eee"/>
      <stop offset="0.559" stop-color="#fff"/>
      <stop offset="0.789" stop-color="#bcbcbc"/>
      <stop offset="0.866" stop-color="#cacac9"/>
      <stop offset="1" stop-color="#eeedeb"/>
    </linearGradient>
    <linearGradient id="linear-gradient-11" x1="0" y1="0.5" x2="1" y2="0.5" xlink:href="#linear-gradient-10"/>
    <radialGradient id="radial-gradient" cx="0.5" cy="0.5" r="0.5" gradientUnits="objectBoundingBox">
      <stop offset="0.368" stop-color="#fff"/>
      <stop offset="1" stop-color="#bcbcbc"/>
    </radialGradient>
    <linearGradient id="linear-gradient-12" x1="0.5" x2="0.5" y2="1" gradientUnits="objectBoundingBox">
      <stop offset="0" stop-color="#2d4a68"/>
      <stop offset="1" stop-color="#0e1d28"/>
    </linearGradient>
    <linearGradient id="linear-gradient-18" x1="0.5" y1="0" x2="0.5" y2="1" xlink:href="#linear-gradient-12"/>
    <linearGradient id="linear-gradient-20" x1="0.5" y1="0" x2="0.5" y2="1" xlink:href="#linear-gradient-12"/>
  </defs>
  <g id="club-logo" transform="translate(-721.425 -2478)">
    <g id="Group_161" data-name="Group 161">
      <g id="Group_154" data-name="Group 154" opacity="0.3" style="mix-blend-mode: multiply;isolation: isolate">
        <path id="Path_211" data-name="Path 211" d="M723.425,2676.538l33.278-39.573-33.278-39.573H872.051v79.147Z"/>
        <path id="Path_212" data-name="Path 212" d="M736.1,2661.463l-3.962,4.711h139.91v-4.711Z"/>
        <path id="Path_213" data-name="Path 213" d="M732.141,2607.756l3.962,4.711H872.051v-4.711Z"/>
        <rect id="Rectangle_35" data-name="Rectangle 35" width="54.231" height="79.147" transform="translate(797.738 2597.392)" style="mix-blend-mode: multiply;isolation: isolate"/>
        <path id="Path_214" data-name="Path 214" d="M1208.243,2676.538l-33.278-39.573,33.278-39.573H1059.617v79.147Z"/>
        <path id="Path_215" data-name="Path 215" d="M1195.566,2661.463l3.962,4.711h-139.91v-4.711Z"/>
        <path id="Path_216" data-name="Path 216" d="M1199.527,2607.756l-3.962,4.711H1059.617v-4.711Z"/>
        <rect id="Rectangle_36" data-name="Rectangle 36" width="54.231" height="79.147" transform="translate(1079.699 2597.392)" style="mix-blend-mode: multiply;isolation: isolate"/>
        <path id="Path_217" data-name="Path 217" d="M965.835,2782.668a88.928,88.928,0,0,1-63.294-26.218l-61.823-61.825a89.5,89.5,0,0,1,0-126.584l61.823-61.823a89.507,89.507,0,0,1,126.586,0l61.823,61.823a89.5,89.5,0,0,1,0,126.584l-61.823,61.825A88.928,88.928,0,0,1,965.835,2782.668Z"/>
        <path id="Path_218" data-name="Path 218" d="M904.015,2507.69l-61.824,61.825a87.425,87.425,0,0,0,0,123.638l61.824,61.824a87.425,87.425,0,0,0,123.638,0l61.824-61.824a87.425,87.425,0,0,0,0-123.638l-61.824-61.825A87.427,87.427,0,0,0,904.015,2507.69Z"/>
        <path id="Path_219" data-name="Path 219" d="M965.835,2771.346a74.229,74.229,0,0,1-52.84-21.889l-65.284-65.287a74.716,74.716,0,0,1,0-105.675l65.284-65.284a74.719,74.719,0,0,1,105.677,0l65.285,65.284a74.716,74.716,0,0,1,0,105.675l-65.285,65.287A74.224,74.224,0,0,1,965.835,2771.346Z"/>
        <path id="Path_220" data-name="Path 220" d="M965.835,2769.146A72.048,72.048,0,0,1,914.55,2747.9l-65.284-65.287a72.517,72.517,0,0,1,0-102.565l65.284-65.284a72.52,72.52,0,0,1,102.568,0l65.284,65.284a72.519,72.519,0,0,1,0,102.565l-65.284,65.287A72.047,72.047,0,0,1,965.835,2769.146Z"/>
      </g>
      <g id="Group_160" data-name="Group 160">
        <g id="Group_159" data-name="Group 159">
          <g id="Group_157" data-name="Group 157">
            <g id="Group_155" data-name="Group 155">
              <path id="Path_221" data-name="Path 221" d="M721.425,2674.538l33.278-39.573-33.278-39.573H870.051v79.147Z" fill="url(#linear-gradient)"/>
              <path id="Path_222" data-name="Path 222" d="M734.1,2659.463l-3.962,4.711h139.91v-4.711Z" fill="url(#linear-gradient-2)"/>
              <path id="Path_223" data-name="Path 223" d="M730.141,2605.756l3.962,4.711H870.051v-4.711Z" fill="url(#linear-gradient-3)"/>
              <rect id="Rectangle_37" data-name="Rectangle 37" width="54.231" height="79.147" transform="translate(795.738 2595.392)" fill="url(#linear-gradient-4)" style="mix-blend-mode: multiply;isolation: isolate"/>
            </g>
            <g id="Group_156" data-name="Group 156">
              <path id="Path_224" data-name="Path 224" d="M1206.243,2674.538l-33.278-39.573,33.278-39.573H1057.617v79.147Z" fill="url(#linear-gradient-5)"/>
              <path id="Path_225" data-name="Path 225" d="M1193.566,2659.463l3.962,4.711h-139.91v-4.711Z" fill="url(#linear-gradient-6)"/>
              <path id="Path_226" data-name="Path 226" d="M1197.527,2605.756l-3.962,4.711H1057.617v-4.711Z" fill="url(#linear-gradient-7)"/>
              <rect id="Rectangle_38" data-name="Rectangle 38" width="54.231" height="79.147" transform="translate(1077.699 2595.392)" fill="url(#linear-gradient-8)" style="mix-blend-mode: multiply;isolation: isolate"/>
            </g>
          </g>
          <path id="Path_227" data-name="Path 227" d="M963.835,2780.668a88.928,88.928,0,0,1-63.294-26.218l-61.823-61.825a89.5,89.5,0,0,1,0-126.584l61.823-61.823a89.507,89.507,0,0,1,126.586,0l61.823,61.823a89.5,89.5,0,0,1,0,126.584l-61.823,61.825A88.928,88.928,0,0,1,963.835,2780.668Z" fill="url(#linear-gradient-9)"/>
          <path id="Path_228" data-name="Path 228" d="M902.015,2505.69l-61.824,61.825a87.425,87.425,0,0,0,0,123.638l61.824,61.824a87.425,87.425,0,0,0,123.638,0l61.824-61.824a87.425,87.425,0,0,0,0-123.638l-61.824-61.825A87.427,87.427,0,0,0,902.015,2505.69Z" fill="url(#linear-gradient-10)"/>
          <g id="Group_158" data-name="Group 158">
            <path id="Path_229" data-name="Path 229" d="M963.835,2769.346a74.229,74.229,0,0,1-52.84-21.889l-65.284-65.287a74.716,74.716,0,0,1,0-105.675l65.284-65.284a74.719,74.719,0,0,1,105.677,0l65.285,65.284a74.716,74.716,0,0,1,0,105.675l-65.285,65.287A74.224,74.224,0,0,1,963.835,2769.346Z" fill="url(#linear-gradient-11)"/>
            <path id="Path_230" data-name="Path 230" d="M963.835,2767.146A72.048,72.048,0,0,1,912.55,2745.9l-65.284-65.287a72.517,72.517,0,0,1,0-102.565l65.284-65.284a72.52,72.52,0,0,1,102.568,0l65.284,65.284a72.519,72.519,0,0,1,0,102.565l-65.284,65.287A72.047,72.047,0,0,1,963.835,2767.146Z" fill="url(#radial-gradient)"/>
          </g>
        </g>
      </g>
    </g>
    <g id="Group_164" data-name="Group 164">
      <g id="Group_162" data-name="Group 162">
        <path id="Path_231" data-name="Path 231" d="M865.905,2656.279v-.143c0-14.236,10.66-25.9,25.825-25.9,7.727,0,12.806,2.288,17.17,5.652a4.393,4.393,0,0,1,1.717,3.5,4.4,4.4,0,0,1-7.011,3.433,18.168,18.168,0,0,0-11.947-4.506c-9.515,0-16.525,7.868-16.525,17.67v.143c0,9.8,6.939,17.742,16.525,17.742a17.944,17.944,0,0,0,12.519-4.794,4.008,4.008,0,0,1,2.648-1,4.186,4.186,0,0,1,4.149,4.078,4.23,4.23,0,0,1-1.431,3.148,25.589,25.589,0,0,1-18.172,6.725C876.779,2682.034,865.905,2670.658,865.905,2656.279Z" fill="url(#linear-gradient-12)"/>
        <path id="Path_232" data-name="Path 232" d="M920.916,2635.1a4.4,4.4,0,0,1,8.8,0v38.059h22.678a4.006,4.006,0,1,1,0,8.013H925.353a4.37,4.37,0,0,1-4.437-4.435Z" fill="url(#linear-gradient-12)"/>
        <path id="Path_233" data-name="Path 233" d="M962.981,2659.927V2635.1a4.4,4.4,0,0,1,8.8,0v24.466c0,9.3,4.794,14.237,12.663,14.237,7.8,0,12.592-4.65,12.592-13.879V2635.1a4.4,4.4,0,0,1,8.8,0v24.4c0,14.951-8.442,22.463-21.534,22.463C971.28,2681.962,962.981,2674.45,962.981,2659.927Z" fill="url(#linear-gradient-12)"/>
        <path id="Path_234" data-name="Path 234" d="M1017.922,2635.533a4.368,4.368,0,0,1,4.435-4.436h18.028c5.724,0,10.23,1.574,13.092,4.436a11.213,11.213,0,0,1,3.362,8.3v.143c0,6.01-3.434,9.228-7.153,11.16,5.866,2,9.944,5.366,9.944,12.161v.144c0,8.943-7.37,13.736-18.529,13.736h-18.744a4.368,4.368,0,0,1-4.435-4.435ZM1038.6,2652.2c5.651,0,9.443-2.217,9.443-6.8v-.143c0-3.935-3.148-6.367-8.8-6.367h-12.662V2652.2Zm2.575,21.176c6.01,0,9.659-2.361,9.659-6.868v-.143c0-4.221-3.363-6.725-10.3-6.725h-13.951v13.736Z" fill="url(#linear-gradient-12)"/>
      </g>
      <g id="Group_163" data-name="Group 163">
        <path id="Path_235" data-name="Path 235" d="M883.705,2587.006a12.078,12.078,0,0,1,9.042,3.632,2.749,2.749,0,0,0,1.959.807,2.706,2.706,0,0,0,2.767-2.766,2.741,2.741,0,0,0-.809-1.958,18.16,18.16,0,1,0,0,25.923,2.748,2.748,0,0,0,.809-1.961,2.706,2.706,0,0,0-2.767-2.766,2.8,2.8,0,0,0-1.969.817,12.063,12.063,0,0,1-9.032,3.623,12.677,12.677,0,1,1,0-25.351Z" fill="url(#linear-gradient-12)"/>
        <path id="Path_236" data-name="Path 236" d="M925.79,2587.006a12.078,12.078,0,0,1,9.042,3.632,2.749,2.749,0,0,0,1.959.807,2.706,2.706,0,0,0,2.767-2.766,2.741,2.741,0,0,0-.809-1.958,18.16,18.16,0,1,0,0,25.923,2.748,2.748,0,0,0,.809-1.961,2.706,2.706,0,0,0-2.767-2.766,2.8,2.8,0,0,0-1.97.817,12.059,12.059,0,0,1-9.031,3.623,12.677,12.677,0,1,1,0-25.351Z" fill="url(#linear-gradient-12)"/>
        <path id="Path_237" data-name="Path 237" d="M975.717,2581.521h-22a2.743,2.743,0,1,0,0,5.485h22a2.743,2.743,0,1,0,0-5.485Z" fill="url(#linear-gradient-18)"/>
        <path id="Path_238" data-name="Path 238" d="M975.717,2612.357h-22a2.742,2.742,0,1,0,0,5.484h22a2.742,2.742,0,1,0,0-5.484Z" fill="url(#linear-gradient-12)"/>
        <path id="Path_239" data-name="Path 239" d="M953.714,2602.448H973.5a2.767,2.767,0,0,0,0-5.534H953.714a2.767,2.767,0,1,0,0,5.534Z" fill="url(#linear-gradient-20)"/>
        <path id="Path_240" data-name="Path 240" d="M993.135,2602.448h19.785a2.767,2.767,0,0,0,0-5.534H993.135a2.767,2.767,0,1,0,0,5.534Z" fill="url(#linear-gradient-20)"/>
        <path id="Path_241" data-name="Path 241" d="M1015.139,2612.357h-22a2.742,2.742,0,1,0,0,5.484h22a2.742,2.742,0,1,0,0-5.484Z" fill="url(#linear-gradient-12)"/>
        <path id="Path_242" data-name="Path 242" d="M1015.139,2581.521h-22a2.743,2.743,0,1,0,0,5.485h22a2.743,2.743,0,1,0,0-5.485Z" fill="url(#linear-gradient-18)"/>
        <path id="Path_243" data-name="Path 243" d="M1059.722,2613.967l-13.214-30.918a2.752,2.752,0,0,0-2.506-1.528,2.8,2.8,0,0,0-2.522,1.668l-13.146,30.769a2.629,2.629,0,0,0-.273,1.117,2.706,2.706,0,0,0,2.768,2.766,2.816,2.816,0,0,0,2.522-1.666l10.655-24.9,10.761,25.042a2.741,2.741,0,0,0,2.456,1.528,2.706,2.706,0,0,0,2.768-2.766A2.617,2.617,0,0,0,1059.722,2613.967Z" fill="url(#linear-gradient-12)"/>
      </g>
    </g>
  </g>
</svg>
