<svg xmlns="http://www.w3.org/2000/svg" width="193.746" height="55.562" viewBox="0 0 193.746 55.562">
  <g id="header-logo" transform="translate(-400.254 -39.777)">
    <g id="Group_15" data-name="Group 15">
      <path id="Path_21" data-name="Path 21" d="M474.132,90.158V90.12a5.344,5.344,0,0,1,10.685-.038v.038a5.239,5.239,0,0,1-5.371,5.219A5.183,5.183,0,0,1,474.132,90.158Zm8.389,0V90.12a3.1,3.1,0,0,0-3.075-3.227,3.008,3.008,0,0,0-3.017,3.189v.038a3.088,3.088,0,0,0,3.056,3.207A3.006,3.006,0,0,0,482.521,90.158Z" fill="#fff"/>
      <path id="Path_22" data-name="Path 22" d="M495.119,86.134a1.135,1.135,0,0,1,1.139-1.158,1.15,1.15,0,0,1,1.157,1.158v.494a3.634,3.634,0,0,1,3.132-1.746c2.258,0,3.568,1.518,3.568,3.833v5.352a1.119,1.119,0,0,1-1.139,1.139,1.134,1.134,0,0,1-1.157-1.139v-4.65c0-1.556-.779-2.448-2.145-2.448a2.23,2.23,0,0,0-2.259,2.487v4.611a1.148,1.148,0,0,1-2.3,0Z" fill="#fff"/>
      <path id="Path_23" data-name="Path 23" d="M514.986,82.3a1.13,1.13,0,0,1,1.139-1.139,1.146,1.146,0,0,1,1.157,1.139V94.067a1.148,1.148,0,0,1-2.3,0Z" fill="#fff"/>
      <path id="Path_24" data-name="Path 24" d="M528.212,82.395a1.326,1.326,0,0,1,2.619,0v.114a1.322,1.322,0,0,1-2.619,0Zm.171,3.739a1.135,1.135,0,0,1,1.139-1.158,1.15,1.15,0,0,1,1.157,1.158v7.933a1.148,1.148,0,0,1-2.3,0Z" fill="#fff"/>
      <path id="Path_25" data-name="Path 25" d="M541.646,86.134a1.135,1.135,0,0,1,1.139-1.158,1.151,1.151,0,0,1,1.158,1.158v.494a3.631,3.631,0,0,1,3.131-1.746c2.259,0,3.569,1.518,3.569,3.833v5.352a1.119,1.119,0,0,1-1.139,1.139,1.134,1.134,0,0,1-1.158-1.139v-4.65c0-1.556-.779-2.448-2.144-2.448a2.23,2.23,0,0,0-2.259,2.487v4.611a1.149,1.149,0,0,1-2.3,0Z" fill="#fff"/>
      <path id="Path_26" data-name="Path 26" d="M565.973,95.339a5,5,0,0,1-5.143-5.2V90.1a4.973,4.973,0,0,1,4.9-5.219,4.74,4.74,0,0,1,4.764,4.934,1.074,1.074,0,0,1-1.081,1.1h-6.283a2.8,2.8,0,0,0,2.885,2.543,3.6,3.6,0,0,0,2.372-.873.856.856,0,0,1,.589-.209.9.9,0,0,1,.911.93,1,1,0,0,1-.3.7A5.149,5.149,0,0,1,565.973,95.339Zm2.277-5.94a2.6,2.6,0,0,0-2.543-2.638,2.71,2.71,0,0,0-2.6,2.638Z" fill="#fff"/>
    </g>
    <path id="Path_27" data-name="Path 27" d="M423.741,39.777a23.487,23.487,0,1,0,23.487,23.487A23.487,23.487,0,0,0,423.741,39.777Zm-.412,20.342,1.141,1.5-1.452,1.071L421.9,61.222Zm3.3,3.016-1.03-1.353.994-.734,1.04,1.346Zm1.437-.064a2.13,2.13,0,0,1-.024,1.92l-.926-1.218Zm-2.082.54-1.452,1.071L423.5,63.328l1.453-1.071Zm-.871-2.468-1.052-1.383a2.186,2.186,0,0,1,2.021.669Zm-22.731.953c2.206-.989,14.74.663,16.113,1.162s1.836,3.663,1.836,3.663S400.573,62.909,402.384,62.1Zm18.727-.263.156-.12,1.106,1.453-1.685,1.242A2.029,2.029,0,0,1,421.111,61.833Zm.036,3.233,1.712-1.262,1.03,1.354-1.7,1.254Zm4.176,2.215a2.035,2.035,0,0,1-2.615-.256l1.666-1.229,1.062,1.4Zm-.3-1.961,1.453-1.071L427.5,65.6l-1.428,1.1ZM432,79.161c-1.674-.7-5.415-9.051-5.572-10.157s2.172-3.293,2.172-3.293S433.38,79.731,432,79.161Zm-3.837-20.172c-1.121.914-4.577-.288-4.577-.288s12.888-14.761,12.92-12.813C436.547,48.262,429.288,58.074,428.166,58.989Z" fill="#fff"/>
    <g id="Group_21" data-name="Group 21">
      <g id="Group_16" data-name="Group 16">
        <path id="Path_28" data-name="Path 28" d="M471.6,47.528a11.421,11.421,0,0,1,8.415,3.358.257.257,0,0,1,.074.185.229.229,0,0,1-.259.258.253.253,0,0,1-.185-.073A11.277,11.277,0,0,0,460.308,59.3a11.381,11.381,0,0,0,19.341,8.047.25.25,0,0,1,.185-.074.229.229,0,0,1,.259.258.256.256,0,0,1-.074.185,11.794,11.794,0,0,1-20.19-8.416A11.538,11.538,0,0,1,471.6,47.528Z" fill="#fff"/>
        <path id="Path_29" data-name="Path 29" d="M471.6,72.259A12.719,12.719,0,0,1,458.646,59.3a13.086,13.086,0,0,1,22.209-9.252,1.445,1.445,0,0,1,.421,1.021,1.41,1.41,0,0,1-1.442,1.441,1.433,1.433,0,0,1-1.019-.418A10.1,10.1,0,0,0,461.491,59.3,9.855,9.855,0,0,0,471.6,69.413a9.627,9.627,0,0,0,7.2-2.9,1.443,1.443,0,0,1,1.026-.425,1.41,1.41,0,0,1,1.442,1.441,1.436,1.436,0,0,1-.416,1.016A12.612,12.612,0,0,1,471.6,72.259Zm7.569-20.546h0Z" fill="#fff"/>
      </g>
      <g id="Group_17" data-name="Group 17">
        <path id="Path_30" data-name="Path 30" d="M500.873,47.528a11.418,11.418,0,0,1,8.415,3.358.249.249,0,0,1,.074.185.228.228,0,0,1-.258.258.247.247,0,0,1-.184-.073A11.277,11.277,0,0,0,489.579,59.3a11.381,11.381,0,0,0,19.341,8.047.244.244,0,0,1,.184-.074.228.228,0,0,1,.258.258.248.248,0,0,1-.074.185A11.794,11.794,0,0,1,489.1,59.3a11.54,11.54,0,0,1,11.775-11.774Z" fill="#fff"/>
        <path id="Path_31" data-name="Path 31" d="M500.873,72.259A12.722,12.722,0,0,1,487.915,59.3a13.086,13.086,0,0,1,22.209-9.252,1.429,1.429,0,0,1,.421,1.021,1.409,1.409,0,0,1-1.441,1.441,1.431,1.431,0,0,1-1.028-.427A10.094,10.094,0,0,0,490.762,59.3a10.2,10.2,0,0,0,17.317,7.215,1.428,1.428,0,0,1,1.025-.425,1.409,1.409,0,0,1,1.441,1.441,1.432,1.432,0,0,1-.425,1.026A12.605,12.605,0,0,1,500.873,72.259Zm7.579-5.378-.007.007Zm0-15.158h0Zm1.3-1.3,0,0Z" fill="#fff"/>
      </g>
      <g id="Group_18" data-name="Group 18">
        <path id="Path_32" data-name="Path 32" d="M519.549,47.528h16.462c.172,0,.259.08.259.239s-.087.24-.259.24H519.549c-.172,0-.257-.079-.257-.24S519.377,47.528,519.549,47.528Zm0,11.516h14.8a.258.258,0,1,1,0,.516h-14.8a.258.258,0,0,1,0-.516Zm0,11.552h16.462c.172,0,.259.08.259.241s-.087.239-.259.239H519.549c-.172,0-.257-.08-.257-.239S519.377,70.6,519.549,70.6Z" fill="#fff"/>
        <path id="Path_33" data-name="Path 33" d="M536.011,72.259H519.549a1.423,1.423,0,1,1,0-2.846h16.462a1.423,1.423,0,1,1,0,2.846Zm0-.48h0ZM534.35,60.743h-14.8a1.441,1.441,0,0,1,0-2.882h14.8a1.441,1.441,0,1,1,0,2.882Zm0-.517h0Zm1.661-11.036H519.549a1.423,1.423,0,1,1,0-2.845h16.462a1.423,1.423,0,1,1,0,2.845Zm0-.48h0Z" fill="#fff"/>
      </g>
      <g id="Group_19" data-name="Group 19">
        <path id="Path_34" data-name="Path 34" d="M546.826,47.528h16.462c.172,0,.259.08.259.239s-.087.24-.259.24H546.826c-.172,0-.258-.079-.258-.24S546.654,47.528,546.826,47.528Zm0,11.516h14.8a.258.258,0,1,1,0,.516h-14.8a.258.258,0,0,1,0-.516Zm0,11.552h16.462c.172,0,.259.08.259.241s-.087.239-.259.239H546.826c-.172,0-.258-.08-.258-.239S546.654,70.6,546.826,70.6Z" fill="#fff"/>
        <path id="Path_35" data-name="Path 35" d="M563.288,72.259H546.826a1.423,1.423,0,1,1,0-2.846h16.462a1.423,1.423,0,1,1,0,2.846Zm0-.48h0Zm-1.661-11.036h-14.8a1.441,1.441,0,0,1,0-2.882h14.8a1.441,1.441,0,0,1,0,2.882Zm0-.517h0Zm1.661-11.036H546.826a1.423,1.423,0,1,1,0-2.845h16.462a1.423,1.423,0,1,1,0,2.845Zm0-.48h0Z" fill="#fff"/>
      </g>
      <g id="Group_20" data-name="Group 20">
        <path id="Path_36" data-name="Path 36" d="M582.667,47.528a.266.266,0,0,1,.259.147l9.854,23.069a.107.107,0,0,1,.037.074.228.228,0,0,1-.257.258.235.235,0,0,1-.222-.147l-9.671-22.516-9.633,22.516a.238.238,0,0,1-.222.147.229.229,0,0,1-.259-.258.107.107,0,0,1,.037-.074l9.856-23.069A.236.236,0,0,1,582.667,47.528Z" fill="#fff"/>
        <path id="Path_37" data-name="Path 37" d="M592.56,72.259a1.409,1.409,0,0,1-1.282-.8c-.009-.019-.019-.039-.027-.059l-8.582-19.98-8.547,19.978c-.011.024-.022.048-.034.071a1.434,1.434,0,0,1-2.717-.647,1.267,1.267,0,0,1,.178-.647l9.81-22.961c.008-.02.017-.039.027-.059a1.406,1.406,0,0,1,1.281-.806,1.441,1.441,0,0,1,1.314.8c.011.023.022.046.032.07l9.809,22.96a1.268,1.268,0,0,1,.178.647A1.409,1.409,0,0,1,592.56,72.259Zm-19.97-1.515h0Z" fill="#fff"/>
      </g>
    </g>
  </g>
</svg>
