<svg xmlns="http://www.w3.org/2000/svg" xmlns:xlink="http://www.w3.org/1999/xlink" width="797.84" height="228.801" viewBox="0 0 797.84 228.801">
  <defs>
    <linearGradient id="linear-gradient" x1="0.5" y1="1" x2="0.5" gradientUnits="objectBoundingBox">
      <stop offset="0.346" stop-color="gray"/>
      <stop offset="0.999" stop-color="#b1b1b1"/>
    </linearGradient>
    <linearGradient id="linear-gradient-7" x1="0.5" y1="1" x2="0.5" gradientUnits="objectBoundingBox">
      <stop offset="0.186" stop-color="#008930"/>
      <stop offset="0.272" stop-color="#0a8e33"/>
      <stop offset="0.577" stop-color="#2c9e3e"/>
      <stop offset="0.831" stop-color="#40a845"/>
      <stop offset="1" stop-color="#48ac48"/>
    </linearGradient>
  </defs>
  <g id="hero-logo" transform="translate(-561.08 -222.108)">
    <g id="Group_3" data-name="Group 3">
      <path id="Path_3" data-name="Path 3" d="M865.309,429.572v-.156c0-11.8,9.381-21.57,22.041-21.57s21.96,9.613,21.96,21.415v.155c0,11.724-9.378,21.493-22.117,21.493C874.611,450.909,865.309,441.3,865.309,429.572Zm34.545,0v-.156c0-7.268-5.235-13.285-12.661-13.285-7.58,0-12.427,5.938-12.427,13.13v.155c0,7.19,5.237,13.208,12.584,13.208C895.009,442.624,899.854,436.685,899.854,429.572Z" fill="url(#linear-gradient)"/>
      <path id="Path_4" data-name="Path 4" d="M951.732,413a4.673,4.673,0,0,1,4.69-4.768A4.737,4.737,0,0,1,961.189,413v2.032c2.659-3.829,6.488-7.19,12.9-7.19,9.3,0,14.693,6.252,14.693,15.787v22.039a4.607,4.607,0,0,1-4.69,4.69,4.67,4.67,0,0,1-4.766-4.69V426.524c0-6.408-3.206-10.081-8.831-10.081-5.473,0-9.3,3.83-9.3,10.238v18.991a4.729,4.729,0,0,1-9.457,0Z" fill="url(#linear-gradient)"/>
      <path id="Path_5" data-name="Path 5" d="M1033.543,397.217a4.655,4.655,0,0,1,4.69-4.689,4.72,4.72,0,0,1,4.767,4.689v48.455a4.729,4.729,0,0,1-9.457,0Z" fill="url(#linear-gradient)"/>
      <path id="Path_6" data-name="Path 6" d="M1088.009,397.607c0-2.812,2.343-4.61,5.392-4.61s5.392,1.8,5.392,4.61v.47c0,2.814-2.345,4.689-5.392,4.689s-5.392-1.875-5.392-4.689Zm.7,15.4a4.673,4.673,0,0,1,4.69-4.768,4.736,4.736,0,0,1,4.766,4.768v32.668a4.728,4.728,0,0,1-9.456,0Z" fill="url(#linear-gradient)"/>
      <path id="Path_7" data-name="Path 7" d="M1143.329,413a4.673,4.673,0,0,1,4.69-4.768,4.737,4.737,0,0,1,4.767,4.768v2.032c2.659-3.829,6.488-7.19,12.9-7.19,9.3,0,14.694,6.252,14.694,15.787v22.039a4.607,4.607,0,0,1-4.691,4.69,4.671,4.671,0,0,1-4.766-4.69V426.524c0-6.408-3.206-10.081-8.831-10.081-5.473,0-9.3,3.83-9.3,10.238v18.991a4.729,4.729,0,0,1-9.457,0Z" fill="url(#linear-gradient)"/>
      <path id="Path_8" data-name="Path 8" d="M1243.506,450.909c-11.956,0-21.18-8.675-21.18-21.414v-.157c0-11.8,8.363-21.492,20.165-21.492,13.129,0,19.617,10.785,19.617,20.319a4.423,4.423,0,0,1-4.455,4.534h-25.87c1.018,6.721,5.784,10.472,11.88,10.472a14.821,14.821,0,0,0,9.768-3.6,3.526,3.526,0,0,1,2.424-.86,3.722,3.722,0,0,1,3.751,3.831,4.134,4.134,0,0,1-1.249,2.891A21.2,21.2,0,0,1,1243.506,450.909Zm9.378-24.462c-.623-6.1-4.219-10.864-10.472-10.864-5.782,0-9.847,4.455-10.7,10.864Z" fill="url(#linear-gradient)"/>
    </g>
    <path id="fav-icon" d="M657.8,222.108a96.719,96.719,0,1,0,96.719,96.719A96.72,96.72,0,0,0,657.8,222.108Zm-1.7,83.768,4.7,6.177-5.98,4.41-4.6-6.046Zm13.6,12.42-4.243-5.575,4.094-3.019,4.283,5.543Zm5.917-.265a8.778,8.778,0,0,1-.1,7.906l-3.814-5.015Zm-8.577,2.222-5.979,4.413-4.243-5.575,5.982-4.412Zm-3.584-10.161-4.334-5.7a9,9,0,0,1,8.325,2.753Zm-93.607,3.923c9.086-4.072,60.7,2.73,66.355,4.784s7.558,15.084,7.558,15.084S562.4,317.363,569.853,314.015Zm77.116-1.084.642-.494,4.556,5.985-6.937,5.116C643.254,319.787,643.892,315.311,646.969,312.931Zm.151,13.315,7.049-5.2,4.239,5.573-7,5.165Zm17.194,9.119c-3.1,2.4-7.629,1.858-10.765-1.051l6.858-5.06L664.781,335Zm-1.249-8.071,5.981-4.412,4.227,5.556-5.88,4.544Zm28.759,56.995c-6.9-2.87-22.3-37.27-22.948-41.827s8.947-13.559,8.947-13.559S697.495,386.638,691.824,384.289Zm-15.8-83.068c-4.617,3.764-18.849-1.187-18.849-1.187s53.075-60.785,53.2-52.762C710.535,257.046,680.643,297.455,676.022,301.221Z" fill="url(#linear-gradient-7)"/>
    <g id="Group_9" data-name="Group 9">
      <g id="Group_4" data-name="Group 4">
        <path id="Path_10" data-name="Path 10" d="M854.9,254.024q20.821,0,34.654,13.83a1.048,1.048,0,0,1,.3.76.942.942,0,0,1-1.066,1.065,1.032,1.032,0,0,1-.761-.3Q874.807,256,854.9,256t-33.212,13.3q-13.3,13.3-13.3,33.21t13.3,33.213q13.3,13.3,33.212,13.3t33.132-13.373a1.037,1.037,0,0,1,.761-.3.943.943,0,0,1,1.066,1.063,1.042,1.042,0,0,1-.3.761Q875.716,351,854.9,351q-20.677,0-34.582-13.907t-13.9-34.58q0-20.667,13.9-34.579T854.9,254.024Z" fill="url(#linear-gradient-7)"/>
        <path id="Path_11" data-name="Path 11" d="M854.9,355.867c-15.057,0-27.851-5.159-38.026-15.333s-15.331-22.967-15.331-38.025,5.159-27.849,15.331-38.023,22.969-15.333,38.026-15.333c15.151,0,27.968,5.133,38.1,15.256a5.957,5.957,0,0,1,1.732,4.205,5.806,5.806,0,0,1-5.937,5.936,5.908,5.908,0,0,1-4.2-1.72c-7.966-8.058-17.67-11.96-29.7-11.96s-21.776,3.884-29.768,11.874-11.873,17.727-11.873,29.765,3.884,21.779,11.873,29.768,17.726,11.871,29.768,11.871,21.735-3.9,29.669-11.927a5.947,5.947,0,0,1,4.224-1.751,5.805,5.805,0,0,1,5.937,5.934,5.914,5.914,0,0,1-1.71,4.185C882.867,350.734,870.049,355.867,854.9,355.867Zm31.17-84.609h0Z" fill="url(#linear-gradient-7)"/>
      </g>
      <g id="Group_5" data-name="Group 5">
        <path id="Path_12" data-name="Path 12" d="M975.426,254.024q20.82,0,34.654,13.83a1.031,1.031,0,0,1,.3.76.94.94,0,0,1-1.061,1.065,1.024,1.024,0,0,1-.761-.3Q995.341,256,975.426,256t-33.212,13.3q-13.3,13.3-13.3,33.21t13.3,33.213q13.3,13.3,33.212,13.3t33.136-13.373a1.029,1.029,0,0,1,.761-.3.941.941,0,0,1,1.061,1.063,1.026,1.026,0,0,1-.3.761Q996.252,351,975.426,351q-20.672,0-34.578-13.907t-13.909-34.58q0-20.667,13.909-34.579T975.426,254.024Z" fill="url(#linear-gradient-7)"/>
        <path id="Path_13" data-name="Path 13" d="M975.426,355.867c-15.056,0-27.847-5.159-38.022-15.333s-15.336-22.97-15.336-38.025,5.159-27.846,15.336-38.023,22.966-15.333,38.022-15.333c15.155,0,27.975,5.133,38.1,15.257a5.893,5.893,0,0,1,1.731,4.2,5.8,5.8,0,0,1-5.932,5.936,5.891,5.891,0,0,1-4.236-1.761c-7.925-8.017-17.631-11.919-29.661-11.919s-21.777,3.884-29.769,11.874-11.868,17.723-11.868,29.765,3.882,21.782,11.868,29.768,17.727,11.871,29.769,11.871,21.739-3.9,29.673-11.927a5.893,5.893,0,0,1,4.224-1.751,5.8,5.8,0,0,1,5.932,5.934,5.9,5.9,0,0,1-1.75,4.226C1003.4,350.733,990.584,355.867,975.426,355.867Zm31.21-22.146-.029.029Zm0-62.422h0Zm5.373-5.367.016.019Z" fill="url(#linear-gradient-7)"/>
      </g>
      <g id="Group_6" data-name="Group 6">
        <path id="Path_14" data-name="Path 14" d="M1052.335,254.024h67.79c.709,0,1.066.329,1.066.987s-.357.988-1.066.988h-67.79c-.709,0-1.061-.328-1.061-.988S1051.626,254.024,1052.335,254.024Zm0,47.422h60.95a1.064,1.064,0,1,1,0,2.128h-60.95a1.064,1.064,0,0,1,0-2.128Zm0,47.573h67.79c.709,0,1.066.329,1.066.99s-.357.987-1.066.987h-67.79c-.709,0-1.061-.331-1.061-.987S1051.626,349.019,1052.335,349.019Z" fill="url(#linear-gradient-7)"/>
        <path id="Path_15" data-name="Path 15" d="M1120.125,355.867h-67.79a5.86,5.86,0,1,1,0-11.719h67.79a5.86,5.86,0,1,1,0,11.719Zm0-1.977h0Zm-6.84-45.445h-60.95a5.935,5.935,0,0,1,0-11.87h60.95a5.935,5.935,0,1,1,0,11.87Zm0-2.128h0Zm6.84-45.447h-67.79a5.859,5.859,0,1,1,0-11.717h67.79a5.859,5.859,0,1,1,0,11.717Zm0-1.975h0Z" fill="url(#linear-gradient-7)"/>
      </g>
      <g id="Group_7" data-name="Group 7">
        <path id="Path_16" data-name="Path 16" d="M1164.659,254.024h67.79q1.063,0,1.065.987c0,.66-.356.988-1.065.988h-67.79c-.709,0-1.061-.328-1.061-.988S1163.95,254.024,1164.659,254.024Zm0,47.422h60.95a1.064,1.064,0,1,1,0,2.128h-60.95a1.064,1.064,0,0,1,0-2.128Zm0,47.573h67.79q1.063,0,1.065.99c0,.656-.356.987-1.065.987h-67.79c-.709,0-1.061-.331-1.061-.987S1163.95,349.019,1164.659,349.019Z" fill="url(#linear-gradient-7)"/>
        <path id="Path_17" data-name="Path 17" d="M1232.449,355.867h-67.79a5.86,5.86,0,1,1,0-11.719h67.79a5.86,5.86,0,1,1,0,11.719Zm0-1.977h0Zm-6.84-45.445h-60.95a5.935,5.935,0,0,1,0-11.87h60.95a5.935,5.935,0,1,1,0,11.87Zm0-2.128h0Zm6.84-45.447h-67.79a5.859,5.859,0,1,1,0-11.717h67.79a5.859,5.859,0,1,1,0,11.717Zm0-1.975h0Z" fill="url(#linear-gradient-7)"/>
      </g>
      <g id="Group_8" data-name="Group 8">
        <path id="Path_18" data-name="Path 18" d="M1312.25,254.024a1.093,1.093,0,0,1,1.066.607l40.58,95a.443.443,0,0,1,.153.305.941.941,0,0,1-1.061,1.063.972.972,0,0,1-.913-.607l-39.825-92.718-39.667,92.718a.983.983,0,0,1-.914.607.942.942,0,0,1-1.065-1.063.442.442,0,0,1,.152-.305l40.586-95A.967.967,0,0,1,1312.25,254.024Z" fill="url(#linear-gradient-7)"/>
        <path id="Path_19" data-name="Path 19" d="M1352.988,355.867a5.8,5.8,0,0,1-5.275-3.31c-.041-.08-.079-.162-.115-.245l-35.338-82.278-35.2,82.272c-.043.1-.088.2-.138.293a5.906,5.906,0,0,1-11.19-2.666,5.224,5.224,0,0,1,.735-2.667l40.4-94.548c.033-.083.071-.164.112-.244a5.794,5.794,0,0,1,5.275-3.321,5.934,5.934,0,0,1,5.411,3.279c.048.094.093.189.133.286l40.391,94.548a5.225,5.225,0,0,1,.735,2.667A5.8,5.8,0,0,1,1352.988,355.867Zm-82.232-6.239h0Z" fill="url(#linear-gradient-7)"/>
      </g>
    </g>
  </g>
</svg>
