<svg xmlns="http://www.w3.org/2000/svg" width="140.85" height="86.72" viewBox="0 0 140.85 86.72">
  <g id="l-1" transform="translate(-415.734 -2131.083)">
    <g id="Group_106" data-name="Group 106">
      <g id="Group_104" data-name="Group 104">
        <path id="Path_140" data-name="Path 140" d="M457.708,2182.271v-.042a7.362,7.362,0,0,1,7.5-7.523,7.627,7.627,0,0,1,4.988,1.642,1.275,1.275,0,0,1,.5,1.018,1.242,1.242,0,0,1-1.268,1.247,1.256,1.256,0,0,1-.769-.249,5.272,5.272,0,0,0-3.47-1.31,4.9,4.9,0,0,0-4.8,5.134v.041a4.9,4.9,0,0,0,4.8,5.155,5.214,5.214,0,0,0,3.637-1.393,1.164,1.164,0,0,1,.769-.291,1.194,1.194,0,0,1,.789,2.1,7.433,7.433,0,0,1-5.279,1.953A7.316,7.316,0,0,1,457.708,2182.271Z" fill="#4d4d4d"/>
        <path id="Path_141" data-name="Path 141" d="M473.69,2176.119a1.279,1.279,0,0,1,2.557,0v11.057h6.588a1.164,1.164,0,1,1,0,2.328h-7.856a1.27,1.27,0,0,1-1.289-1.289Z" fill="#4d4d4d"/>
        <path id="Path_142" data-name="Path 142" d="M485.911,2183.331v-7.212a1.279,1.279,0,0,1,2.557,0v7.108c0,2.7,1.392,4.136,3.678,4.136,2.266,0,3.658-1.351,3.658-4.032v-7.212a1.279,1.279,0,0,1,2.557,0v7.087c0,4.344-2.453,6.526-6.256,6.526C488.322,2189.732,485.911,2187.55,485.911,2183.331Z" fill="#4d4d4d"/>
        <path id="Path_143" data-name="Path 143" d="M501.873,2176.244a1.269,1.269,0,0,1,1.288-1.289H508.4a5.249,5.249,0,0,1,3.8,1.289,3.256,3.256,0,0,1,.977,2.411v.041a3.465,3.465,0,0,1-2.078,3.242c1.7.582,2.889,1.559,2.889,3.533v.042c0,2.6-2.141,3.991-5.383,3.991h-5.446a1.269,1.269,0,0,1-1.288-1.289Zm6.006,4.842c1.642,0,2.744-.644,2.744-1.974v-.042c0-1.143-.915-1.85-2.557-1.85h-3.679v3.866Zm.748,6.152c1.746,0,2.806-.686,2.806-2v-.042c0-1.226-.977-1.953-2.993-1.953h-4.053v3.99Z" fill="#4d4d4d"/>
      </g>
      <g id="Group_105" data-name="Group 105">
        <path id="Path_144" data-name="Path 144" d="M462.88,2162.146a3.51,3.51,0,0,1,2.627,1.055.8.8,0,0,0,.569.234.786.786,0,0,0,.8-.8.8.8,0,0,0-.235-.569,5.276,5.276,0,1,0,0,7.531.8.8,0,0,0,.235-.57.786.786,0,0,0-.8-.8.813.813,0,0,0-.572.237,3.506,3.506,0,0,1-2.624,1.053,3.683,3.683,0,1,1,0-7.365Z" fill="#4d4d4d"/>
        <path id="Path_145" data-name="Path 145" d="M475.106,2162.146a3.51,3.51,0,0,1,2.627,1.055.8.8,0,0,0,.569.234.785.785,0,0,0,.8-.8.8.8,0,0,0-.235-.569,5.276,5.276,0,1,0,0,7.531.8.8,0,0,0,.235-.57.785.785,0,0,0-.8-.8.813.813,0,0,0-.572.237,3.506,3.506,0,0,1-2.624,1.053,3.683,3.683,0,1,1,0-7.365Z" fill="#4d4d4d"/>
        <path id="Path_146" data-name="Path 146" d="M489.611,2160.552h-6.392a.8.8,0,1,0,0,1.594h6.392a.8.8,0,1,0,0-1.594Z" fill="#4d4d4d"/>
        <path id="Path_147" data-name="Path 147" d="M489.611,2169.511h-6.392a.8.8,0,1,0,0,1.593h6.392a.8.8,0,1,0,0-1.593Z" fill="#4d4d4d"/>
        <path id="Path_148" data-name="Path 148" d="M483.219,2166.632h5.748a.8.8,0,0,0,0-1.608h-5.748a.8.8,0,0,0,0,1.608Z" fill="#4d4d4d"/>
        <path id="Path_149" data-name="Path 149" d="M494.671,2166.632h5.748a.8.8,0,0,0,0-1.608h-5.748a.8.8,0,0,0,0,1.608Z" fill="#4d4d4d"/>
        <path id="Path_150" data-name="Path 150" d="M501.064,2169.511h-6.393a.8.8,0,1,0,0,1.593h6.393a.8.8,0,1,0,0-1.593Z" fill="#4d4d4d"/>
        <path id="Path_151" data-name="Path 151" d="M501.064,2160.552h-6.393a.8.8,0,1,0,0,1.594h6.393a.8.8,0,1,0,0-1.594Z" fill="#4d4d4d"/>
        <path id="Path_152" data-name="Path 152" d="M514.016,2169.978,510.178,2161a.8.8,0,0,0-.729-.444.812.812,0,0,0-.732.485l-3.819,8.939a.765.765,0,0,0-.08.324.786.786,0,0,0,.8.8.818.818,0,0,0,.732-.484l3.1-7.235,3.126,7.275a.8.8,0,0,0,.714.444.786.786,0,0,0,.8-.8A.755.755,0,0,0,514.016,2169.978Z" fill="#4d4d4d"/>
      </g>
    </g>
    <path id="Path_153" data-name="Path 153" d="M522.08,2156.483l-17.961-17.961a25.4,25.4,0,0,0-35.92,0l-17.961,17.961a25.4,25.4,0,0,0,0,35.92l17.961,17.961a25.4,25.4,0,0,0,35.92,0L522.08,2192.4A25.4,25.4,0,0,0,522.08,2156.483Zm-1.6,33.31L501.51,2208.76a21.709,21.709,0,0,1-30.7,0l-18.966-18.967a21.7,21.7,0,0,1,0-30.7l18.966-18.966a21.707,21.707,0,0,1,30.7,0l18.966,18.966a21.707,21.707,0,0,1,0,30.7Z" fill="#4d4d4d"/>
    <path id="Path_154" data-name="Path 154" d="M441.094,2183.2a28.668,28.668,0,0,1-.845-14.234H419.417l5.985,7.117-5.985,7.117Z" fill="#4d4d4d"/>
    <path id="Path_155" data-name="Path 155" d="M441.474,2164.582h-25.74l2.532,3.011h22.283A28.145,28.145,0,0,1,441.474,2164.582Z" fill="#4d4d4d"/>
    <path id="Path_156" data-name="Path 156" d="M441.574,2184.565H418.266l-2.532,3.011h27.188A28.22,28.22,0,0,1,441.574,2184.565Z" fill="#4d4d4d"/>
    <path id="Path_157" data-name="Path 157" d="M529.4,2187.576h27.188l-2.532-3.011H530.744A28.214,28.214,0,0,1,529.4,2187.576Z" fill="#4d4d4d"/>
    <g id="Group_107" data-name="Group 107">
      <path id="Path_158" data-name="Path 158" d="M553.178,2168.633l-.277.329h0Z" fill="#4d4d4d"/>
      <path id="Path_159" data-name="Path 159" d="M532.069,2168.962a28.667,28.667,0,0,1-.845,14.234H552.9l-5.985-7.117,5.985-7.117Z" fill="#4d4d4d"/>
    </g>
    <path id="Path_160" data-name="Path 160" d="M530.844,2164.582a28.145,28.145,0,0,1,.925,3.011h22.283l2.532-3.011Z" fill="#4d4d4d"/>
  </g>
</svg>
