<svg xmlns="http://www.w3.org/2000/svg" width="140.15" height="39.922" viewBox="0 0 140.15 39.922">
  <g id="l-2" transform="translate(-654.003 -2155.078)">
    <g id="Group_85" data-name="Group 85">
      <g id="Group_74" data-name="Group 74">
        <path id="Path_87" data-name="Path 87" d="M709.85,2158.844a3.391,3.391,0,0,1,2.5,1,.072.072,0,0,1,.022.055.068.068,0,0,1-.077.076.076.076,0,0,1-.055-.021,3.357,3.357,0,1,0,0,4.783.073.073,0,0,1,.055-.022.068.068,0,0,1,.077.077.07.07,0,0,1-.022.054,3.534,3.534,0,1,1-2.5-6Z" fill="#4d4d4d"/>
        <path id="Path_88" data-name="Path 88" d="M709.85,2166.407a4.064,4.064,0,1,1,2.9-6.964.64.64,0,0,1,.187.454.626.626,0,0,1-.641.64.638.638,0,0,1-.449-.183,2.794,2.794,0,1,0-.007,3.984.652.652,0,0,1,.456-.189.626.626,0,0,1,.641.641.633.633,0,0,1-.2.46A3.945,3.945,0,0,1,709.85,2166.407Zm2.1-1.961-.01.01Zm0-4.206h0Z" fill="#4d4d4d"/>
      </g>
      <g id="Group_75" data-name="Group 75">
        <path id="Path_89" data-name="Path 89" d="M717.672,2158.844a.079.079,0,0,1,.077.044l2.929,6.856a.034.034,0,0,1,.011.022.068.068,0,0,1-.077.077.071.071,0,0,1-.066-.044l-2.874-6.692-2.864,6.692a.071.071,0,0,1-.066.044.068.068,0,0,1-.076-.077.032.032,0,0,1,.01-.022l2.93-6.856A.068.068,0,0,1,717.672,2158.844Z" fill="#4d4d4d"/>
        <path id="Path_90" data-name="Path 90" d="M720.612,2166.407a.636.636,0,0,1-.568-.352l-2.371-5.518-2.347,5.484a.645.645,0,0,1-.584.386.627.627,0,0,1-.64-.641.61.61,0,0,1,.06-.254l2.925-6.846a.64.64,0,0,1,.585-.386.646.646,0,0,1,.579.351l2.939,6.877a.611.611,0,0,1,.062.258A.627.627,0,0,1,720.612,2166.407Zm-5.936-.663h0Z" fill="#4d4d4d"/>
      </g>
      <g id="Group_76" data-name="Group 76">
        <path id="Path_91" data-name="Path 91" d="M723.442,2158.844c.045,0,.066.025.066.076v6.78h4.827c.052,0,.077.024.077.072s-.025.071-.077.071h-4.893a.068.068,0,0,1-.076-.077v-6.846A.067.067,0,0,1,723.442,2158.844Z" fill="#4d4d4d"/>
        <path id="Path_92" data-name="Path 92" d="M728.335,2166.407h-4.893a.627.627,0,0,1-.64-.641v-6.845a.635.635,0,1,1,1.27,0v6.215h4.263a.624.624,0,0,1,.641.636A.631.631,0,0,1,728.335,2166.407Z" fill="#4d4d4d"/>
      </g>
      <g id="Group_77" data-name="Group 77">
        <path id="Path_93" data-name="Path 93" d="M733.437,2158.844a3.391,3.391,0,0,1,2.5,1,.072.072,0,0,1,.022.055.068.068,0,0,1-.077.076.076.076,0,0,1-.055-.021,3.357,3.357,0,1,0,0,4.783.074.074,0,0,1,.055-.022.068.068,0,0,1,.077.077.07.07,0,0,1-.022.054,3.534,3.534,0,1,1-2.5-6Z" fill="#4d4d4d"/>
        <path id="Path_94" data-name="Path 94" d="M733.436,2166.407a4.064,4.064,0,1,1,2.9-6.964.637.637,0,0,1,.188.454.627.627,0,0,1-.641.64.642.642,0,0,1-.45-.183,2.793,2.793,0,1,0-.006,3.984.651.651,0,0,1,.456-.189.627.627,0,0,1,.641.641.633.633,0,0,1-.2.46A3.945,3.945,0,0,1,733.436,2166.407Zm2.1-1.961-.01.01Zm0-4.206h0Z" fill="#4d4d4d"/>
      </g>
      <g id="Group_78" data-name="Group 78">
        <path id="Path_95" data-name="Path 95" d="M738.713,2158.844c.044,0,.066.025.066.076v4.191a2.59,2.59,0,1,0,5.179,0v-4.191a.067.067,0,0,1,.076-.076.068.068,0,0,1,.077.076v4.191a2.737,2.737,0,0,1-5.474,0v-4.191A.067.067,0,0,1,738.713,2158.844Z" fill="#4d4d4d"/>
        <path id="Path_96" data-name="Path 96" d="M741.374,2166.407a3.3,3.3,0,0,1-3.3-3.3v-4.19a.635.635,0,1,1,1.27,0v4.19a2.025,2.025,0,1,0,4.051,0v-4.19a.641.641,0,1,1,1.281,0v4.19a3.3,3.3,0,0,1-3.3,3.3Z" fill="#4d4d4d"/>
      </g>
      <g id="Group_79" data-name="Group 79">
        <path id="Path_97" data-name="Path 97" d="M747.248,2158.844c.045,0,.066.025.066.076v6.78h4.827c.052,0,.077.024.077.072s-.025.071-.077.071h-4.893a.068.068,0,0,1-.076-.077v-6.846A.067.067,0,0,1,747.248,2158.844Z" fill="#4d4d4d"/>
        <path id="Path_98" data-name="Path 98" d="M752.141,2166.407h-4.893a.627.627,0,0,1-.64-.641v-6.845a.635.635,0,1,1,1.27,0v6.215h4.263a.624.624,0,0,1,.641.636A.631.631,0,0,1,752.141,2166.407Z" fill="#4d4d4d"/>
      </g>
      <g id="Group_80" data-name="Group 80">
        <path id="Path_99" data-name="Path 99" d="M757.517,2158.844a.079.079,0,0,1,.077.044l2.929,6.856a.033.033,0,0,1,.011.022.068.068,0,0,1-.077.077.071.071,0,0,1-.066-.044l-2.874-6.692-2.864,6.692a.07.07,0,0,1-.066.044.068.068,0,0,1-.076-.077.03.03,0,0,1,.011-.022l2.929-6.856A.068.068,0,0,1,757.517,2158.844Z" fill="#4d4d4d"/>
        <path id="Path_100" data-name="Path 100" d="M760.457,2166.407a.635.635,0,0,1-.572-.36l-2.367-5.509-2.346,5.483a.652.652,0,0,1-.585.386.627.627,0,0,1-.58-.9l2.925-6.846a.66.66,0,0,1,1.168-.027l2.935,6.869a.6.6,0,0,1,.063.258A.627.627,0,0,1,760.457,2166.407Zm-5.935-.663h0Z" fill="#4d4d4d"/>
      </g>
      <g id="Group_81" data-name="Group 81">
        <path id="Path_101" data-name="Path 101" d="M763.287,2158.844h.977a4.274,4.274,0,0,1,3.116,1,4,4,0,0,1,0,5,4.275,4.275,0,0,1-3.116,1h-.977c-.051,0-.076-.024-.076-.071s.025-.072.076-.072h.977a4.082,4.082,0,0,0,3.006-.965,3.846,3.846,0,0,0,0-4.783,4.078,4.078,0,0,0-3.006-.966h-.977c-.051,0-.076-.023-.076-.071S763.236,2158.844,763.287,2158.844Z" fill="#4d4d4d"/>
        <path id="Path_102" data-name="Path 102" d="M764.264,2166.407h-.976a.636.636,0,1,1,0-1.271h.976a3.574,3.574,0,0,0,2.605-.8,3.3,3.3,0,0,0,0-3.988,3.582,3.582,0,0,0-2.608-.8h-.976a.635.635,0,1,1,0-1.27h.976a4.819,4.819,0,0,1,3.512,1.161,4.553,4.553,0,0,1,0,5.8A4.819,4.819,0,0,1,764.264,2166.407Z" fill="#4d4d4d"/>
      </g>
      <g id="Group_82" data-name="Group 82">
        <path id="Path_103" data-name="Path 103" d="M773.962,2158.844a3.5,3.5,0,0,1,2.54,1.025,3.446,3.446,0,0,1,0,4.948,3.5,3.5,0,0,1-2.54,1.026,3.356,3.356,0,0,1-1.761-.472,3.288,3.288,0,0,1-1.218-1.272,3.776,3.776,0,0,1,0-3.511,3.3,3.3,0,0,1,1.218-1.273A3.355,3.355,0,0,1,773.962,2158.844Zm0,.142a3.1,3.1,0,0,0-2.342.971,3.534,3.534,0,0,0,0,4.772,3.1,3.1,0,0,0,2.342.971,3.359,3.359,0,0,0,2.441-.982,3.311,3.311,0,0,0,0-4.75A3.363,3.363,0,0,0,773.962,2158.986Z" fill="#4d4d4d"/>
        <path id="Path_104" data-name="Path 104" d="M773.962,2166.407a3.923,3.923,0,0,1-2.052-.553,3.848,3.848,0,0,1-1.422-1.487,4.331,4.331,0,0,1,0-4.048,3.848,3.848,0,0,1,1.422-1.487,3.92,3.92,0,0,1,2.052-.552,4.06,4.06,0,0,1,2.934,1.186,4.01,4.01,0,0,1,0,5.754A4.061,4.061,0,0,1,773.962,2166.407Zm0-6.857a2.539,2.539,0,0,0-1.935.8,2.969,2.969,0,0,0,0,3.993,2.536,2.536,0,0,0,1.934.8,2.791,2.791,0,0,0,2.047-.821,2.748,2.748,0,0,0,0-3.944A2.8,2.8,0,0,0,773.962,2159.55Z" fill="#4d4d4d"/>
      </g>
      <g id="Group_83" data-name="Group 83">
        <path id="Path_105" data-name="Path 105" d="M780.3,2158.844h2.447a3.324,3.324,0,0,1,1.623.362,1.769,1.769,0,0,1,0,3.082,2.9,2.9,0,0,1-1.251.351l2.14,3.083a.1.1,0,0,1,.011.044.068.068,0,0,1-.077.077.065.065,0,0,1-.055-.033l-2.194-3.16a1.627,1.627,0,0,1-.2.011h-2.37v3.105a.068.068,0,0,1-.077.077.068.068,0,0,1-.076-.077v-3.181c0-.044.025-.066.076-.066h2.447a3.108,3.108,0,0,0,1.557-.362,1.63,1.63,0,0,0,0-2.82,3.142,3.142,0,0,0-1.557-.351H780.3c-.051,0-.076-.023-.076-.071S780.252,2158.844,780.3,2158.844Z" fill="#4d4d4d"/>
        <path id="Path_106" data-name="Path 106" d="M785.2,2166.407a.625.625,0,0,1-.532-.3l-2-2.884h-1.716v2.541a.64.64,0,1,1-1.281,0v-3.181a.621.621,0,0,1,.64-.63h2.447a2.572,2.572,0,0,0,1.278-.288,1.066,1.066,0,0,0,.006-1.836,2.606,2.606,0,0,0-1.284-.281H780.3a.635.635,0,1,1,0-1.27h2.447a3.89,3.89,0,0,1,1.9.432,2.334,2.334,0,0,1,0,4.071,2.99,2.99,0,0,1-.564.247l1.645,2.371a.416.416,0,0,1,.043.073.774.774,0,0,1,.069.292A.627.627,0,0,1,785.2,2166.407Zm.388-.948.021.029A.2.2,0,0,0,785.584,2165.459Z" fill="#4d4d4d"/>
      </g>
      <g id="Group_84" data-name="Group 84">
        <path id="Path_107" data-name="Path 107" d="M790.572,2158.844a.079.079,0,0,1,.077.044l2.929,6.856a.033.033,0,0,1,.011.022.068.068,0,0,1-.077.077.071.071,0,0,1-.066-.044l-2.874-6.692-2.864,6.692a.071.071,0,0,1-.066.044.068.068,0,0,1-.076-.077.032.032,0,0,1,.01-.022l2.93-6.856A.068.068,0,0,1,790.572,2158.844Z" fill="#4d4d4d"/>
        <path id="Path_108" data-name="Path 108" d="M793.512,2166.407a.636.636,0,0,1-.568-.352l-2.371-5.518-2.347,5.484a.65.65,0,0,1-.584.386.627.627,0,0,1-.64-.641.609.609,0,0,1,.06-.254l2.925-6.846a.659.659,0,0,1,1.167-.027l2.936,6.869a.612.612,0,0,1,.063.258A.627.627,0,0,1,793.512,2166.407Zm-5.936-.663h0Z" fill="#4d4d4d"/>
      </g>
      <path id="Path_109" data-name="Path 109" d="M706.592,2187.845a1.437,1.437,0,0,1,1.728-2.3,7.492,7.492,0,0,0,4.837,1.777c1.877,0,3.062-.889,3.062-2.172v-.049c0-1.235-.692-1.9-3.9-2.642-3.678-.888-5.751-1.975-5.751-5.159v-.049c0-2.962,2.468-5.011,5.9-5.011a9.5,9.5,0,0,1,5.479,1.6,1.371,1.371,0,0,1,.667,1.21,1.412,1.412,0,0,1-1.432,1.407,1.463,1.463,0,0,1-.789-.222,7.191,7.191,0,0,0-3.975-1.309c-1.777,0-2.814.914-2.814,2.049v.05c0,1.333.79,1.925,4.122,2.715,3.654.888,5.53,2.2,5.53,5.06v.05c0,3.233-2.543,5.159-6.171,5.159A10.762,10.762,0,0,1,706.592,2187.845Z" fill="#4d4d4d"/>
      <path id="Path_110" data-name="Path 110" d="M722.068,2181.18v-.05a9.035,9.035,0,0,1,18.069-.049v.049a9.035,9.035,0,0,1-18.069.05Zm14.885,0v-.05a5.92,5.92,0,0,0-5.875-6.146,5.839,5.839,0,0,0-5.826,6.1v.049a5.9,5.9,0,0,0,5.875,6.122A5.817,5.817,0,0,0,736.953,2181.18Z" fill="#4d4d4d"/>
      <path id="Path_111" data-name="Path 111" d="M743.814,2173.873a1.519,1.519,0,0,1,3.037,0V2187h7.824a1.383,1.383,0,1,1,0,2.765h-9.33a1.508,1.508,0,0,1-1.531-1.53Z" fill="#4d4d4d"/>
      <path id="Path_112" data-name="Path 112" d="M758.106,2187.795l6.419-14.317a1.925,1.925,0,0,1,1.826-1.234h.148a1.893,1.893,0,0,1,1.8,1.234l6.418,14.317a1.318,1.318,0,0,1,.173.642,1.422,1.422,0,0,1-1.432,1.456,1.564,1.564,0,0,1-1.481-1.061l-1.407-3.234H762.18l-1.457,3.332a1.459,1.459,0,0,1-1.407.963,1.391,1.391,0,0,1-1.407-1.407A1.56,1.56,0,0,1,758.106,2187.795Zm11.306-4.887-3.036-6.986-3.036,6.986Z" fill="#4d4d4d"/>
      <path id="Path_113" data-name="Path 113" d="M778.174,2174.021a1.507,1.507,0,0,1,1.53-1.53h6.171a6.959,6.959,0,0,1,4.987,1.728,5.223,5.223,0,0,1,1.432,3.727V2178a5.113,5.113,0,0,1-3.925,5.159l3.308,4.172a1.76,1.76,0,0,1,.493,1.16,1.432,1.432,0,0,1-1.456,1.407,1.737,1.737,0,0,1-1.482-.79l-4.2-5.356H781.21v4.64a1.518,1.518,0,0,1-3.036,0Zm7.479,7.035c2.173,0,3.555-1.135,3.555-2.888v-.049c0-1.852-1.333-2.864-3.579-2.864H781.21v5.8Z" fill="#4d4d4d"/>
    </g>
    <g id="Group_86" data-name="Group 86">
      <path id="Path_114" data-name="Path 114" d="M673.959,2155.078h18.7c.891,0,1.289.39,1.289,1.281q0,18.674,0,37.349a1.135,1.135,0,0,1-1.258,1.29c-.115,0-.229,0-.344,0H655.59a4.188,4.188,0,0,1-.636-.035,1.06,1.06,0,0,1-.945-1.027c-.011-.147,0-.295,0-.443v-36.956c0-1.141.318-1.459,1.456-1.459Zm1.118,18.864h16.688v-16.709H675.077Zm-18.885,2.188v16.71h16.68v-16.71Zm0-18.9v16.711h16.678v-16.711Zm18.893,18.9v16.71h16.679v-16.71Z" fill="#4d4d4d"/>
      <path id="Path_115" data-name="Path 115" d="M683.429,2166.617c-1.376,0-2.752.009-4.129,0a1.027,1.027,0,0,1-1.1-1.238,1.015,1.015,0,0,1,1.008-.841q4.2-.015,8.405,0a1.038,1.038,0,1,1-.009,2.076c-1.392.016-2.785,0-4.178,0Z" fill="#4d4d4d"/>
      <path id="Path_116" data-name="Path 116" d="M663.143,2184.54c-.843-.833-1.584-1.55-2.306-2.285a.985.985,0,0,1-.186-1.259.945.945,0,0,1,1.075-.507,1.613,1.613,0,0,1,.7.41c.7.668,1.367,1.363,2.1,2.1l1.673-1.681c.185-.186.364-.378.56-.552a1.042,1.042,0,0,1,1.462-.013,1.017,1.017,0,0,1,.007,1.5c-.632.664-1.292,1.3-1.939,1.951-.081.081-.156.167-.27.29.7.7,1.394,1.389,2.091,2.077.293.29.558.64.4,1.038a1.69,1.69,0,0,1-.69.806.9.9,0,0,1-1.076-.244q-.922-.92-1.844-1.839c-.114-.113-.234-.22-.39-.367-.719.724-1.415,1.435-2.123,2.136a1.084,1.084,0,0,1-1.293.28,1.037,1.037,0,0,1-.247-1.7c.586-.617,1.2-1.213,1.807-1.807A3.454,3.454,0,0,1,663.143,2184.54Z" fill="#4d4d4d"/>
      <path id="Path_117" data-name="Path 117" d="M665.586,2166.618c0,.954,0,1.852,0,2.749,0,.959-.376,1.466-1.074,1.455-.68-.011-1.041-.507-1.041-1.437,0-.9,0-1.8,0-2.767h-2.338c-.246,0-.492.006-.737,0a1.021,1.021,0,0,1-1.1-1.058,1.039,1.039,0,0,1,1.135-1.029c.836-.009,1.673,0,2.509,0h.531v-1.855c0-.377-.006-.754,0-1.131a1.065,1.065,0,1,1,2.111-.018c.012.8,0,1.607,0,2.411v.593c1.033,0,2.028-.005,3.022,0a1.055,1.055,0,0,1,1.134.815,1.019,1.019,0,0,1-1.014,1.265c-.852.023-1.705.008-2.557.009Z" fill="#4d4d4d"/>
      <path id="Path_118" data-name="Path 118" d="M683.4,2188.665c-1.327,0-2.654,0-3.981,0-.781,0-1.221-.379-1.228-1.028s.457-1.061,1.25-1.062q4.03,0,8.061,0a1.052,1.052,0,0,1,1.021,1.573,1.091,1.091,0,0,1-1.043.517C686.118,2188.66,684.758,2188.665,683.4,2188.665Z" fill="#4d4d4d"/>
      <path id="Path_119" data-name="Path 119" d="M683.438,2182.55c-1.344,0-2.688,0-4.031,0-.769,0-1.217-.393-1.219-1.04s.448-1.044,1.211-1.044q4.031,0,8.062,0c.738,0,1.18.382,1.193,1.011.014.656-.432,1.069-1.186,1.072C686.125,2182.555,684.781,2182.55,683.438,2182.55Z" fill="#4d4d4d"/>
    </g>
  </g>
</svg>
