<svg xmlns="http://www.w3.org/2000/svg" width="131.541" height="40.792" viewBox="0 0 131.541 40.792">
  <g id="l-3" transform="translate(-889.271 -2154.047)">
    <g id="Group_121" data-name="Group 121">
      <g id="Group_109" data-name="Group 109">
        <path id="Path_161" data-name="Path 161" d="M945.124,2156.933a5.386,5.386,0,0,1,3.97,1.585.115.115,0,0,1,.035.087.108.108,0,0,1-.122.122.116.116,0,0,1-.087-.035,5.33,5.33,0,1,0,0,7.593.12.12,0,0,1,.087-.035.108.108,0,0,1,.122.122.115.115,0,0,1-.035.087,5.609,5.609,0,1,1-3.97-9.526Z" fill="#4d4d4d"/>
        <path id="Path_162" data-name="Path 162" d="M945.124,2169.044a6.556,6.556,0,1,1,4.677-11.233,1.247,1.247,0,0,1,.328.794,1.11,1.11,0,0,1-1.122,1.122,1.249,1.249,0,0,1-.794-.328,4.33,4.33,0,1,0,0,6.183,1.249,1.249,0,0,1,.8-.332,1.11,1.11,0,0,1,1.122,1.122,1.243,1.243,0,0,1-.336.8A6.368,6.368,0,0,1,945.124,2169.044Z" fill="#4d4d4d"/>
      </g>
      <g id="Group_110" data-name="Group 110">
        <path id="Path_163" data-name="Path 163" d="M953.5,2156.933c.071,0,.1.041.1.122v6.653a4.111,4.111,0,1,0,8.221,0v-6.653a.121.121,0,1,1,.243,0v6.653a4.345,4.345,0,0,1-8.69,0v-6.653A.107.107,0,0,1,953.5,2156.933Z" fill="#4d4d4d"/>
        <path id="Path_164" data-name="Path 164" d="M957.723,2169.044a5.34,5.34,0,0,1-5.345-5.336v-6.653a1.113,1.113,0,1,1,2.226,0v6.653a3.111,3.111,0,1,0,6.221,0v-6.653a1.121,1.121,0,1,1,2.243,0v6.653a5.341,5.341,0,0,1-5.345,5.336Z" fill="#4d4d4d"/>
      </g>
      <g id="Group_111" data-name="Group 111">
        <path id="Path_165" data-name="Path 165" d="M967.048,2156.933h3.884a5.285,5.285,0,0,1,2.577.575,2.81,2.81,0,0,1,0,4.894,4.642,4.642,0,0,1-1.985.557l3.4,4.893a.154.154,0,0,1,.018.07.108.108,0,0,1-.122.122.1.1,0,0,1-.087-.052l-3.483-5.016a2.762,2.762,0,0,1-.314.018H967.17v4.928a.121.121,0,1,1-.243,0v-5.05c0-.07.04-.1.121-.1h3.884a4.932,4.932,0,0,0,2.473-.574,2.587,2.587,0,0,0,0-4.476,5,5,0,0,0-2.473-.557h-3.884c-.081,0-.121-.038-.121-.113S966.967,2156.933,967.048,2156.933Z" fill="#4d4d4d"/>
        <path id="Path_166" data-name="Path 166" d="M974.816,2169.044a1.1,1.1,0,0,1-.926-.508l-3.155-4.542H968.17v3.928a1.121,1.121,0,1,1-2.243,0v-5.05a1.1,1.1,0,0,1,1.121-1.1h3.884a3.98,3.98,0,0,0,1.978-.443,1.587,1.587,0,0,0,.01-2.732,4.046,4.046,0,0,0-1.988-.432h-3.884a1.113,1.113,0,1,1,0-2.227h3.884a6.285,6.285,0,0,1,3.06.7,3.81,3.81,0,0,1,0,6.646,4.662,4.662,0,0,1-.782.355l2.533,3.649a1.288,1.288,0,0,1,.073.123,1.343,1.343,0,0,1,.123.517A1.11,1.11,0,0,1,974.816,2169.044Zm.708-1.66.026.038A.3.3,0,0,0,975.524,2167.384Z" fill="#4d4d4d"/>
      </g>
      <g id="Group_112" data-name="Group 112">
        <path id="Path_167" data-name="Path 167" d="M984.342,2156.933a7.782,7.782,0,0,1,2.569.392,4.8,4.8,0,0,1,1.8,1.054.116.116,0,0,1,.036.087.093.093,0,0,1-.105.1.114.114,0,0,1-.087-.035,4.82,4.82,0,0,0-1.733-.992,7.443,7.443,0,0,0-2.482-.383,6.071,6.071,0,0,0-3.482.923,3.1,3.1,0,0,0-.88.888,1.829,1.829,0,0,0-.3.975,1.417,1.417,0,0,0,.365.958,2.794,2.794,0,0,0,1.011.679,18.076,18.076,0,0,0,3.187.8,17.417,17.417,0,0,1,3.221.836,2.863,2.863,0,0,1,1.1.714,1.566,1.566,0,0,1,.436,1.1,2.558,2.558,0,0,1-1.516,2.23,6.54,6.54,0,0,1-3.257.783,8.146,8.146,0,0,1-4.98-1.48.1.1,0,0,1-.052-.087.107.107,0,0,1,.121-.122.164.164,0,0,1,.07.017,7.857,7.857,0,0,0,4.841,1.446,6.156,6.156,0,0,0,3.135-.766,2.336,2.336,0,0,0,1.411-2.021,1.315,1.315,0,0,0-.384-.94,2.627,2.627,0,0,0-1.009-.662,17.546,17.546,0,0,0-3.187-.8,17.857,17.857,0,0,1-3.222-.836,3.015,3.015,0,0,1-1.1-.731,1.588,1.588,0,0,1-.436-1.115,1.993,1.993,0,0,1,.34-1.088,3.568,3.568,0,0,1,.949-.967A6.372,6.372,0,0,1,984.342,2156.933Z" fill="#4d4d4d"/>
        <path id="Path_168" data-name="Path 168" d="M984.22,2169.044a9.162,9.162,0,0,1-5.575-1.676,1.072,1.072,0,0,1-.457-.891,1.109,1.109,0,0,1,1.121-1.122,1.346,1.346,0,0,1,.518.123,1.013,1.013,0,0,1,.152.094,6.92,6.92,0,0,0,4.241,1.246,5.2,5.2,0,0,0,2.634-.632c.912-.518.912-.981.912-1.155a.32.32,0,0,0-.1-.248,1.668,1.668,0,0,0-.668-.429,16.039,16.039,0,0,0-2.991-.743,18.445,18.445,0,0,1-3.434-.9,3.946,3.946,0,0,1-1.453-.989,2.579,2.579,0,0,1-.684-1.775,2.989,2.989,0,0,1,.5-1.627,4.575,4.575,0,0,1,1.211-1.242,7.391,7.391,0,0,1,4.2-1.144,8.8,8.8,0,0,1,2.9.448,5.82,5.82,0,0,1,2.171,1.282,1.245,1.245,0,0,1,.337.8,1.093,1.093,0,0,1-1.105,1.1,1.244,1.244,0,0,1-.809-.343,3.886,3.886,0,0,0-1.343-.741,6.512,6.512,0,0,0-2.15-.326,5.128,5.128,0,0,0-2.92.75,2.126,2.126,0,0,0-.594.591.848.848,0,0,0-.153.445.42.42,0,0,0,.119.3,1.809,1.809,0,0,0,.657.419,16.618,16.618,0,0,0,2.971.735,18.1,18.1,0,0,1,3.44.9,3.746,3.746,0,0,1,1.447.971,2.555,2.555,0,0,1,.684,1.755,3.5,3.5,0,0,1-2.018,3.1A7.54,7.54,0,0,1,984.22,2169.044Zm-4.433-3.318.068.05Z" fill="#4d4d4d"/>
      </g>
      <g id="Group_113" data-name="Group 113">
        <path id="Path_169" data-name="Path 169" d="M998.658,2156.933a5.55,5.55,0,0,1,4.031,1.629,5.468,5.468,0,0,1,0,7.854,5.553,5.553,0,0,1-4.031,1.628,5.321,5.321,0,0,1-2.8-.749,5.21,5.21,0,0,1-1.933-2.02,5.994,5.994,0,0,1,0-5.573,5.219,5.219,0,0,1,1.933-2.02A5.323,5.323,0,0,1,998.658,2156.933Zm0,.227a4.925,4.925,0,0,0-3.719,1.541,5.61,5.61,0,0,0,0,7.576,4.925,4.925,0,0,0,3.719,1.541,5.334,5.334,0,0,0,3.874-1.559,5.258,5.258,0,0,0,0-7.54A5.334,5.334,0,0,0,998.658,2157.16Z" fill="#4d4d4d"/>
        <path id="Path_170" data-name="Path 170" d="M998.658,2169.044a6.337,6.337,0,0,1-3.312-.892,6.219,6.219,0,0,1-2.3-2.4,6.991,6.991,0,0,1,0-6.525,6.215,6.215,0,0,1,2.3-2.4,6.328,6.328,0,0,1,3.312-.893,6.543,6.543,0,0,1,4.73,1.914,6.467,6.467,0,0,1,0,9.283A6.543,6.543,0,0,1,998.658,2169.044Zm0-10.884a3.93,3.93,0,0,0-3,1.232,4.609,4.609,0,0,0,0,6.194,3.926,3.926,0,0,0,2.995,1.232,4.33,4.33,0,0,0,3.174-1.274,4.256,4.256,0,0,0,0-6.111A4.328,4.328,0,0,0,998.658,2158.16Z" fill="#4d4d4d"/>
      </g>
      <g id="Group_114" data-name="Group 114">
        <path id="Path_171" data-name="Path 171" d="M1013.756,2156.933a7.782,7.782,0,0,1,2.569.392,4.8,4.8,0,0,1,1.8,1.054.116.116,0,0,1,.036.087.093.093,0,0,1-.105.1.114.114,0,0,1-.087-.035,4.82,4.82,0,0,0-1.733-.992,7.443,7.443,0,0,0-2.482-.383,6.071,6.071,0,0,0-3.482.923,3.1,3.1,0,0,0-.88.888,1.829,1.829,0,0,0-.3.975,1.413,1.413,0,0,0,.366.958,2.78,2.78,0,0,0,1.01.679,18.076,18.076,0,0,0,3.187.8,17.459,17.459,0,0,1,3.222.836,2.867,2.867,0,0,1,1.1.714,1.566,1.566,0,0,1,.436,1.1,2.558,2.558,0,0,1-1.516,2.23,6.54,6.54,0,0,1-3.257.783,8.146,8.146,0,0,1-4.98-1.48.1.1,0,0,1-.052-.087.107.107,0,0,1,.121-.122.161.161,0,0,1,.07.017,7.859,7.859,0,0,0,4.841,1.446,6.156,6.156,0,0,0,3.135-.766,2.336,2.336,0,0,0,1.411-2.021,1.315,1.315,0,0,0-.384-.94,2.627,2.627,0,0,0-1.009-.662,17.546,17.546,0,0,0-3.187-.8,17.855,17.855,0,0,1-3.222-.836,3.015,3.015,0,0,1-1.1-.731,1.588,1.588,0,0,1-.436-1.115,1.993,1.993,0,0,1,.34-1.088,3.568,3.568,0,0,1,.949-.967A6.372,6.372,0,0,1,1013.756,2156.933Z" fill="#4d4d4d"/>
        <path id="Path_172" data-name="Path 172" d="M1013.634,2169.044a9.162,9.162,0,0,1-5.575-1.676,1.072,1.072,0,0,1-.457-.891,1.109,1.109,0,0,1,1.121-1.122,1.346,1.346,0,0,1,.518.123,1.017,1.017,0,0,1,.152.094,6.922,6.922,0,0,0,4.241,1.246,5.2,5.2,0,0,0,2.634-.632c.912-.518.912-.981.912-1.155a.32.32,0,0,0-.1-.248,1.668,1.668,0,0,0-.668-.429,16.039,16.039,0,0,0-2.991-.743,18.445,18.445,0,0,1-3.434-.9,3.946,3.946,0,0,1-1.453-.989,2.579,2.579,0,0,1-.684-1.775,2.99,2.99,0,0,1,.5-1.627,4.575,4.575,0,0,1,1.211-1.242,7.391,7.391,0,0,1,4.2-1.144,8.8,8.8,0,0,1,2.9.448,5.813,5.813,0,0,1,2.171,1.282,1.245,1.245,0,0,1,.337.8,1.093,1.093,0,0,1-1.105,1.1,1.244,1.244,0,0,1-.809-.343,3.886,3.886,0,0,0-1.343-.741,6.512,6.512,0,0,0-2.15-.326,5.128,5.128,0,0,0-2.92.75,2.139,2.139,0,0,0-.594.591.848.848,0,0,0-.153.445.425.425,0,0,0,.119.3,1.82,1.82,0,0,0,.657.419,16.646,16.646,0,0,0,2.971.735,18.077,18.077,0,0,1,3.44.9,3.738,3.738,0,0,1,1.447.971,2.55,2.55,0,0,1,.684,1.755,3.5,3.5,0,0,1-2.018,3.1A7.54,7.54,0,0,1,1013.634,2169.044Zm-4.433-3.318.068.05C1009.248,2165.759,1009.224,2165.742,1009.2,2165.726Z" fill="#4d4d4d"/>
      </g>
      <g id="Group_115" data-name="Group 115">
        <path id="Path_173" data-name="Path 173" d="M938.369,2182.72v-.042a7.685,7.685,0,0,1,15.369-.042v.042a7.685,7.685,0,0,1-15.369.042Zm12.661,0v-.042a5.036,5.036,0,0,0-5-5.228,4.966,4.966,0,0,0-4.955,5.186v.042a5.018,5.018,0,0,0,5,5.207A4.948,4.948,0,0,0,951.03,2182.72Z" fill="#4d4d4d"/>
      </g>
      <g id="Group_116" data-name="Group 116">
        <path id="Path_174" data-name="Path 174" d="M956.87,2176.547a1.3,1.3,0,0,1,1.3-1.3h.274a1.629,1.629,0,0,1,1.344.756l7.347,9.511v-9.028a1.271,1.271,0,0,1,2.541,0v12.345a1.255,1.255,0,0,1-1.26,1.281h-.1a1.629,1.629,0,0,1-1.344-.777l-7.558-9.784v9.322a1.27,1.27,0,0,1-2.54,0Z" fill="#4d4d4d"/>
      </g>
      <g id="Group_117" data-name="Group 117">
        <path id="Path_175" data-name="Path 175" d="M973.459,2176.5a1.292,1.292,0,0,1,2.583,0v11.17H982.7a1.175,1.175,0,1,1,0,2.351h-7.937a1.283,1.283,0,0,1-1.3-1.3Z" fill="#4d4d4d"/>
      </g>
      <g id="Group_118" data-name="Group 118">
        <path id="Path_176" data-name="Path 176" d="M986.6,2176.5a1.292,1.292,0,0,1,2.583,0v12.345a1.292,1.292,0,0,1-2.583,0Z" fill="#4d4d4d"/>
      </g>
      <g id="Group_119" data-name="Group 119">
        <path id="Path_177" data-name="Path 177" d="M993.115,2176.547a1.294,1.294,0,0,1,1.3-1.3h.273a1.625,1.625,0,0,1,1.344.756l7.349,9.511v-9.028a1.27,1.27,0,0,1,2.54,0v12.345a1.255,1.255,0,0,1-1.259,1.281h-.105a1.626,1.626,0,0,1-1.344-.777l-7.558-9.784v9.322a1.271,1.271,0,0,1-2.541,0Z" fill="#4d4d4d"/>
      </g>
      <g id="Group_120" data-name="Group 120">
        <path id="Path_178" data-name="Path 178" d="M1009.705,2188.724v-12.093a1.281,1.281,0,0,1,1.3-1.3h8.546a1.166,1.166,0,0,1,1.155,1.155,1.151,1.151,0,0,1-1.155,1.154h-7.265v3.822h6.32a1.169,1.169,0,0,1,1.154,1.176,1.146,1.146,0,0,1-1.154,1.133h-6.32v3.948h7.37a1.165,1.165,0,0,1,1.155,1.154,1.152,1.152,0,0,1-1.155,1.155h-8.651A1.281,1.281,0,0,1,1009.705,2188.724Z" fill="#4d4d4d"/>
      </g>
    </g>
    <g id="Group_125" data-name="Group 125">
      <g id="Group_123" data-name="Group 123">
        <g id="Group_122" data-name="Group 122">
          <path id="Path_179" data-name="Path 179" d="M904.911,2184.736l14.391-8.306c1.891-1.091,1.891-2.877,0-3.969l-14.389-8.311c-1.891-1.092-3.438-.2-3.438,1.985v16.616C901.473,2184.934,903.02,2185.827,904.911,2184.736Z" fill="#4d4d4d"/>
        </g>
      </g>
      <g id="Group_124" data-name="Group 124">
        <path id="Path_180" data-name="Path 180" d="M909.667,2194.839a20.4,20.4,0,1,1,20.4-20.4A20.418,20.418,0,0,1,909.667,2194.839Zm0-38.647a18.251,18.251,0,1,0,18.251,18.251A18.271,18.271,0,0,0,909.667,2156.192Z" fill="#4d4d4d"/>
      </g>
    </g>
  </g>
</svg>
