<svg xmlns="http://www.w3.org/2000/svg" width="182.589" height="37.981" viewBox="0 0 182.589 37.981">
  <g id="l-4" transform="translate(-1114.34 -2155.444)">
    <g id="Group_146" data-name="Group 146">
      <g id="Group_127" data-name="Group 127">
        <path id="Path_181" data-name="Path 181" d="M1178.216,2159.4a.121.121,0,0,1,.115.065l2.608,6.1,2.626-6.1a.078.078,0,0,1,.082-.065h.016a.105.105,0,0,1,.1.065l4.37,10.193v.032a.1.1,0,0,1-.114.115.106.106,0,0,1-.1-.066l-4.256-9.948-2.61,6.051,1.631,3.816a.045.045,0,0,1,.017.032.1.1,0,0,1-.115.115.1.1,0,0,1-.1-.066l-1.55-3.62-1.549,3.62a.1.1,0,0,1-.1.066.1.1,0,0,1-.114-.115.041.041,0,0,1,.017-.032l1.631-3.816-2.61-6.051-4.257,9.948a.1.1,0,0,1-.1.066.1.1,0,0,1-.114-.115.04.04,0,0,1,.016-.032l4.354-10.193A.105.105,0,0,1,1178.216,2159.4Z" fill="#4d4d4d"/>
        <path id="Path_182" data-name="Path 182" d="M1188.017,2170.806a1.1,1.1,0,0,1-.994-.622l-3.363-7.859-1.519,3.52,1.451,3.394a1.059,1.059,0,0,1,.109.452,1.111,1.111,0,0,1-2.109.493l-.652-1.524-.631,1.473a1.124,1.124,0,0,1-1.017.673,1.1,1.1,0,0,1-1.114-1.115,1.059,1.059,0,0,1,.109-.453l1.451-3.393-1.518-3.519-3.342,7.808a1.123,1.123,0,0,1-1.016.672,1.1,1.1,0,0,1-1.114-1.115,1.058,1.058,0,0,1,.108-.453l4.342-10.165a1.141,1.141,0,0,1,2.018-.071l1.726,4.029,1.687-3.921a1.068,1.068,0,0,1,1.018-.709,1.115,1.115,0,0,1,1,.6l4.4,10.263a.986.986,0,0,1,.081.394A1.11,1.11,0,0,1,1188.017,2170.806Zm-14.253-1.147h0Z" fill="#4d4d4d"/>
      </g>
      <g id="Group_128" data-name="Group 128">
        <path id="Path_183" data-name="Path 183" d="M1196.025,2159.4a.118.118,0,0,1,.114.065l4.354,10.193a.047.047,0,0,1,.016.032.1.1,0,0,1-.114.115.105.105,0,0,1-.1-.066l-4.272-9.948-4.257,9.948a.1.1,0,0,1-.1.066.1.1,0,0,1-.114-.115.041.041,0,0,1,.017-.032l4.353-10.193A.107.107,0,0,1,1196.025,2159.4Z" fill="#4d4d4d"/>
        <path id="Path_184" data-name="Path 184" d="M1200.4,2170.806a1.1,1.1,0,0,1-.994-.622l-3.374-7.854-3.34,7.8a1.124,1.124,0,0,1-1.017.672,1.1,1.1,0,0,1-1.114-1.115,1.044,1.044,0,0,1,.109-.453l4.341-10.165a1.142,1.142,0,0,1,2.019-.071l4.376,10.237a1.072,1.072,0,0,1,.108.452A1.1,1.1,0,0,1,1200.4,2170.806Zm-8.822-1.147h0Z" fill="#4d4d4d"/>
      </g>
      <g id="Group_129" data-name="Group 129">
        <path id="Path_185" data-name="Path 185" d="M1211.876,2159.4a.1.1,0,0,1,.115.114v10.176a.1.1,0,0,1-.115.115.107.107,0,0,1-.1-.05l-7.078-9.9v9.834c0,.076-.036.115-.107.115s-.1-.039-.1-.115v-10.176a.1.1,0,0,1,.114-.114.094.094,0,0,1,.081.049l7.078,9.9v-9.834A.1.1,0,0,1,1211.876,2159.4Z" fill="#4d4d4d"/>
        <path id="Path_186" data-name="Path 186" d="M1211.876,2170.806a1.112,1.112,0,0,1-.933-.5l-5.242-7.33v6.716a1.106,1.106,0,1,1-2.212,0v-10.176a1.1,1.1,0,0,1,1.114-1.114,1.2,1.2,0,0,1,.917.5l5.242,7.33v-6.716a1.115,1.115,0,0,1,2.229,0v10.176A1.1,1.1,0,0,1,1211.876,2170.806Z" fill="#4d4d4d"/>
      </g>
      <g id="Group_130" data-name="Group 130">
        <path id="Path_187" data-name="Path 187" d="M1216.655,2159.4c.065,0,.1.038.1.114v6.23a3.849,3.849,0,1,0,7.7,0v-6.23a.114.114,0,0,1,.228,0v6.23a4.069,4.069,0,0,1-8.138,0v-6.23A.1.1,0,0,1,1216.655,2159.4Z" fill="#4d4d4d"/>
        <path id="Path_188" data-name="Path 188" d="M1220.61,2170.806a5.067,5.067,0,0,1-5.07-5.061v-6.23a1.106,1.106,0,1,1,2.212,0v6.23a2.849,2.849,0,1,0,5.7,0v-6.23a1.114,1.114,0,0,1,2.228,0v6.23a5.065,5.065,0,0,1-5.068,5.061Z" fill="#4d4d4d"/>
      </g>
      <g id="Group_131" data-name="Group 131">
        <path id="Path_189" data-name="Path 189" d="M1232.555,2159.4a.118.118,0,0,1,.114.065l4.354,10.193a.044.044,0,0,1,.017.032.111.111,0,0,1-.212.049l-4.273-9.948-4.257,9.948a.1.1,0,0,1-.1.066.1.1,0,0,1-.115-.115.041.041,0,0,1,.017-.032l4.354-10.193A.105.105,0,0,1,1232.555,2159.4Z" fill="#4d4d4d"/>
        <path id="Path_190" data-name="Path 190" d="M1236.925,2170.806a1.105,1.105,0,0,1-.994-.622l-3.374-7.854-3.34,7.8a1.124,1.124,0,0,1-1.016.672,1.1,1.1,0,0,1-1.115-1.115,1.045,1.045,0,0,1,.109-.453l4.342-10.165a1.141,1.141,0,0,1,2.018-.071l4.376,10.237a1.073,1.073,0,0,1,.109.452A1.1,1.1,0,0,1,1236.925,2170.806Zm-8.822-1.147h0Z" fill="#4d4d4d"/>
      </g>
      <g id="Group_132" data-name="Group 132">
        <path id="Path_191" data-name="Path 191" d="M1241.133,2159.4c.066,0,.1.038.1.114v10.078h7.176c.076,0,.114.035.114.106s-.038.107-.114.107h-7.274a.1.1,0,0,1-.114-.115v-10.176A.1.1,0,0,1,1241.133,2159.4Z" fill="#4d4d4d"/>
        <path id="Path_192" data-name="Path 192" d="M1248.407,2170.806h-7.274a1.1,1.1,0,0,1-1.114-1.115v-10.176a1.106,1.106,0,1,1,2.212,0v9.078h6.176a1.106,1.106,0,1,1,0,2.213Z" fill="#4d4d4d"/>
      </g>
      <g id="Group_133" data-name="Group 133">
        <path id="Path_193" data-name="Path 193" d="M1264.6,2159.4h1.451a6.358,6.358,0,0,1,4.632,1.484,5.949,5.949,0,0,1,0,7.436,6.354,6.354,0,0,1-4.632,1.485H1264.6c-.076,0-.114-.036-.114-.107s.038-.106.114-.106h1.451a6.062,6.062,0,0,0,4.469-1.435,5.719,5.719,0,0,0,0-7.11,6.062,6.062,0,0,0-4.469-1.435H1264.6c-.076,0-.114-.035-.114-.106S1264.525,2159.4,1264.6,2159.4Z" fill="#4d4d4d"/>
        <path id="Path_194" data-name="Path 194" d="M1266.052,2170.806H1264.6a1.106,1.106,0,1,1,0-2.213h1.451a5.173,5.173,0,0,0,3.758-1.138,4.758,4.758,0,0,0,0-5.7,5.174,5.174,0,0,0-3.762-1.142H1264.6a1.106,1.106,0,1,1,0-2.212h1.451a7.325,7.325,0,0,1,5.335,1.772,6.926,6.926,0,0,1,0,8.855A7.322,7.322,0,0,1,1266.052,2170.806Z" fill="#4d4d4d"/>
      </g>
      <g id="Group_134" data-name="Group 134">
        <path id="Path_195" data-name="Path 195" d="M1276.49,2159.4h7.273c.076,0,.114.035.114.106s-.038.106-.114.106h-7.273c-.076,0-.115-.035-.115-.106S1276.414,2159.4,1276.49,2159.4Zm0,5.088h6.539a.114.114,0,0,1,0,.228h-6.539a.114.114,0,1,1,0-.228Zm0,5.1h7.273c.076,0,.114.035.114.106s-.038.107-.114.107h-7.273c-.076,0-.115-.036-.115-.107S1276.414,2169.593,1276.49,2169.593Z" fill="#4d4d4d"/>
        <path id="Path_196" data-name="Path 196" d="M1283.763,2170.806h-7.273a1.106,1.106,0,1,1,0-2.213h7.273a1.106,1.106,0,1,1,0,2.213Zm0-.213h0Zm-.734-4.876h-6.539a1.114,1.114,0,1,1,0-2.228h6.539a1.114,1.114,0,0,1,0,2.228Zm0-.228h0Zm.734-4.876h-7.273a1.106,1.106,0,1,1,0-2.212h7.273a1.106,1.106,0,1,1,0,2.212Zm0-.212h0Z" fill="#4d4d4d"/>
      </g>
      <g id="Group_135" data-name="Group 135">
        <path id="Path_197" data-name="Path 197" d="M1288.541,2159.4c.066,0,.1.038.1.114v10.078h7.176c.076,0,.114.035.114.106s-.038.107-.114.107h-7.274a.1.1,0,0,1-.114-.115v-10.176A.1.1,0,0,1,1288.541,2159.4Z" fill="#4d4d4d"/>
        <path id="Path_198" data-name="Path 198" d="M1295.815,2170.806h-7.274a1.1,1.1,0,0,1-1.114-1.115v-10.176a1.106,1.106,0,1,1,2.212,0v9.078h6.176a1.106,1.106,0,1,1,0,2.213Z" fill="#4d4d4d"/>
      </g>
      <g id="Group_136" data-name="Group 136">
        <path id="Path_199" data-name="Path 199" d="M1173.258,2178.353a1.137,1.137,0,0,1,2.275,0v10.875a1.137,1.137,0,0,1-2.275,0Z" fill="#4d4d4d"/>
      </g>
      <g id="Group_137" data-name="Group 137">
        <path id="Path_200" data-name="Path 200" d="M1178.993,2178.39a1.14,1.14,0,0,1,1.146-1.146h.241a1.432,1.432,0,0,1,1.184.666l6.473,8.377v-7.952a1.119,1.119,0,0,1,2.237,0v10.874a1.105,1.105,0,0,1-1.109,1.128h-.093a1.433,1.433,0,0,1-1.184-.684l-6.657-8.618v8.211a1.119,1.119,0,0,1-2.238,0Z" fill="#4d4d4d"/>
      </g>
      <g id="Group_138" data-name="Group 138">
        <path id="Path_201" data-name="Path 201" d="M1193.276,2188.821a1.076,1.076,0,0,1,1.294-1.72,5.615,5.615,0,0,0,3.625,1.331c1.405,0,2.293-.665,2.293-1.627v-.037c0-.925-.518-1.424-2.922-1.979-2.756-.665-4.309-1.479-4.309-3.865v-.037c0-2.22,1.849-3.754,4.42-3.754a7.124,7.124,0,0,1,4.106,1.2,1.028,1.028,0,0,1,.5.906,1.058,1.058,0,0,1-1.073,1.054,1.086,1.086,0,0,1-.591-.167,5.389,5.389,0,0,0-2.978-.98c-1.332,0-2.108.685-2.108,1.536v.036c0,1,.592,1.443,3.088,2.035,2.737.665,4.142,1.646,4.142,3.791v.037c0,2.422-1.9,3.865-4.623,3.865A8.059,8.059,0,0,1,1193.276,2188.821Z" fill="#4d4d4d"/>
      </g>
      <g id="Group_139" data-name="Group 139">
        <path id="Path_202" data-name="Path 202" d="M1208.352,2179.426h-3.145a1.054,1.054,0,0,1,0-2.108h8.6a1.054,1.054,0,0,1,0,2.108h-3.162v9.8a1.147,1.147,0,0,1-2.293,0Z" fill="#4d4d4d"/>
      </g>
      <g id="Group_140" data-name="Group 140">
        <path id="Path_203" data-name="Path 203" d="M1214.939,2188.784l4.809-10.727a1.44,1.44,0,0,1,1.368-.924h.111a1.419,1.419,0,0,1,1.35.924l4.808,10.727a.994.994,0,0,1,.129.481,1.065,1.065,0,0,1-1.072,1.09,1.172,1.172,0,0,1-1.11-.794l-1.054-2.423h-6.287l-1.092,2.5a1.093,1.093,0,0,1-1.054.721,1.042,1.042,0,0,1-1.055-1.054A1.159,1.159,0,0,1,1214.939,2188.784Zm8.47-3.662-2.275-5.234-2.274,5.234Z" fill="#4d4d4d"/>
      </g>
      <g id="Group_141" data-name="Group 141">
        <path id="Path_204" data-name="Path 204" d="M1229.979,2178.353a1.138,1.138,0,0,1,2.275,0v9.839h5.863a1.036,1.036,0,0,1,0,2.071h-6.992a1.129,1.129,0,0,1-1.146-1.146Z" fill="#4d4d4d"/>
      </g>
      <g id="Group_142" data-name="Group 142">
        <path id="Path_205" data-name="Path 205" d="M1240.691,2188.784l4.808-10.727a1.443,1.443,0,0,1,1.369-.924h.111a1.42,1.42,0,0,1,1.35.924l4.808,10.727a.994.994,0,0,1,.129.481,1.065,1.065,0,0,1-1.072,1.09,1.172,1.172,0,0,1-1.11-.794l-1.054-2.423h-6.287l-1.092,2.5a1.093,1.093,0,0,1-1.054.721,1.042,1.042,0,0,1-1.055-1.054A1.159,1.159,0,0,1,1240.691,2188.784Zm8.47-3.662-2.275-5.234-2.274,5.234Z" fill="#4d4d4d"/>
      </g>
      <g id="Group_143" data-name="Group 143">
        <path id="Path_206" data-name="Path 206" d="M1255.73,2178.464a1.129,1.129,0,0,1,1.147-1.146h3.68c4.068,0,6.88,2.792,6.88,6.435v.038c0,3.643-2.812,6.472-6.88,6.472h-3.68a1.129,1.129,0,0,1-1.147-1.146Zm4.827,9.728a4.219,4.219,0,0,0,4.494-4.364v-.037a4.248,4.248,0,0,0-4.494-4.4h-2.552v8.8Z" fill="#4d4d4d"/>
      </g>
      <g id="Group_144" data-name="Group 144">
        <path id="Path_207" data-name="Path 207" d="M1269.624,2183.828v-.037a6.77,6.77,0,0,1,13.538-.038v.038a6.77,6.77,0,0,1-13.538.037Zm11.152,0v-.037a4.435,4.435,0,0,0-4.4-4.6,4.373,4.373,0,0,0-4.365,4.567v.038a4.42,4.42,0,0,0,4.4,4.586A4.359,4.359,0,0,0,1280.776,2183.828Z" fill="#4d4d4d"/>
      </g>
      <g id="Group_145" data-name="Group 145">
        <path id="Path_208" data-name="Path 208" d="M1285.922,2178.464a1.129,1.129,0,0,1,1.147-1.146h4.624a5.213,5.213,0,0,1,3.735,1.294,3.912,3.912,0,0,1,1.073,2.793v.037a3.831,3.831,0,0,1-2.94,3.865l2.478,3.125a1.323,1.323,0,0,1,.37.869,1.072,1.072,0,0,1-1.091,1.054,1.3,1.3,0,0,1-1.111-.591l-3.143-4.014H1288.2v3.478a1.138,1.138,0,0,1-2.276,0Zm5.6,5.271c1.628,0,2.663-.851,2.663-2.164v-.037c0-1.387-1-2.145-2.681-2.145h-3.31v4.346Z" fill="#4d4d4d"/>
      </g>
    </g>
    <g id="Group_147" data-name="Group 147">
      <path id="Path_209" data-name="Path 209" d="M1114.59,2192.006V2161.95a1.81,1.81,0,0,1,2-1.188c.646.044,1.3.008,1.946.008h.855c0-1.127-.005-2.182,0-3.237a1.531,1.531,0,0,1,1.435-1.669,22.894,22.894,0,0,1,7.381.3,15.86,15.86,0,0,1,9.385,5.283,2.309,2.309,0,0,0,.181.171c.137-.151.259-.279.375-.413a14.374,14.374,0,0,1,4.4-3.415,19.271,19.271,0,0,1,6.379-1.9,22.457,22.457,0,0,1,5.866-.018,1.519,1.519,0,0,1,1.337,1.48c.013.226.005.453.005.679,0,.9,0,1.8,0,2.734,1.048,0,2.041,0,3.033,0a1.578,1.578,0,0,1,1.767,1.754q0,14.439,0,28.877a1.576,1.576,0,0,1-2.187,1.66,40.214,40.214,0,0,0-9.723-1.719,23.217,23.217,0,0,0-10.447,1.638,1.911,1.911,0,0,1-1.613.008,21.788,21.788,0,0,0-8.771-1.691,38.256,38.256,0,0,0-11.353,1.744,1.475,1.475,0,0,1-1.349-.029A6.5,6.5,0,0,1,1114.59,2192.006Zm7.939-9.117c5.01-.069,9.7.856,13.66,4.252.015-.139.026-.2.026-.251q0-10.882-.005-21.766a1.015,1.015,0,0,0-.161-.5,11.291,11.291,0,0,0-5.236-4.42,17.108,17.108,0,0,0-5.468-1.307c-.923-.081-1.858-.014-2.816-.014ZM1153,2158.873c-.13-.015-.233-.034-.336-.037a20.209,20.209,0,0,0-6.255.767,11.965,11.965,0,0,0-6.288,4.108c-.34.439-.8.843-.8,1.47q-.006,10.791,0,21.581a3.662,3.662,0,0,0,.041.369c3.967-3.4,8.651-4.3,13.643-4.25Zm4.8,30.665v-25.633h-1.661v.573q0,9.843,0,19.687c0,.181.006.363-.011.543a1.534,1.534,0,0,1-1.583,1.422c-.211,0-.422-.013-.632-.031a19.966,19.966,0,0,0-8.208.924,11.617,11.617,0,0,0-3.055,1.534A38.354,38.354,0,0,1,1157.8,2189.538Zm-24.928-.982c-.188-.133-.27-.2-.358-.252a14.809,14.809,0,0,0-6.918-2.162c-1.5-.106-3.01-.024-4.516-.011a1.562,1.562,0,0,1-1.689-1.6c-.005-.136,0-.272,0-.407v-20.218h-1.667v25.63A38.425,38.425,0,0,1,1132.874,2188.556Z" fill="#4d4d4d" stroke="#efefef" stroke-miterlimit="10" stroke-width="0.5"/>
    </g>
  </g>
</svg>
