<svg xmlns="http://www.w3.org/2000/svg" width="109.292" height="52.867" viewBox="0 0 109.292 52.867">
  <g id="l-5" transform="translate(-1390.974 -2148.009)">
    <g id="Group_96" data-name="Group 96">
      <g id="Group_88" data-name="Group 88">
        <path id="Path_120" data-name="Path 120" d="M1423.679,2200.876h-12.543a20.185,20.185,0,0,1-20.162-20.162v-12.543a20.185,20.185,0,0,1,20.162-20.162h12.543a20.185,20.185,0,0,1,20.162,20.162v12.543A20.184,20.184,0,0,1,1423.679,2200.876Zm-12.543-50.4a17.714,17.714,0,0,0-17.694,17.693v12.543a17.714,17.714,0,0,0,17.694,17.694h12.543a17.713,17.713,0,0,0,17.694-17.694v-12.543a17.713,17.713,0,0,0-17.694-17.693Z" fill="#4d4d4d"/>
      </g>
      <g id="Group_95" data-name="Group 95">
        <g id="Group_89" data-name="Group 89">
          <path id="Path_121" data-name="Path 121" d="M1419.995,2171.357c-.861,1.061-4.288.614-4.288.614s9.077-16.131,9.481-14.336C1425.68,2159.823,1420.857,2170.295,1419.995,2171.357Z" fill="#4d4d4d"/>
          <path id="Path_122" data-name="Path 122" d="M1418.726,2177.591c-.611-1.222,1.21-4.16,1.21-4.16s10.947,14.926,9.145,14.553C1426.885,2187.53,1419.337,2178.814,1418.726,2177.591Z" fill="#4d4d4d"/>
          <path id="Path_123" data-name="Path 123" d="M1413.369,2173.568c1.355.171,2.783,3.319,2.783,3.319s-18.493.795-17.18-.495C1400.571,2174.82,1412.012,2173.4,1413.369,2173.568Z" fill="#4d4d4d"/>
        </g>
        <g id="Group_90" data-name="Group 90">
          <path id="Path_124" data-name="Path 124" d="M1401.182,2170.365c3.195-.2,6.39-.4,9.585-.608.775-.052.945-.465,1.237-1.03l1.053-2.036,3.059-5.919,2.039-3.945a1.052,1.052,0,0,0-.294-1.414,1.029,1.029,0,0,0-1.414.295l-5.635,10.9-.81,1.568.919-.459-8.412.533-1.2.076a1.055,1.055,0,0,0-1.084.954,1.028,1.028,0,0,0,.954,1.085Z" fill="#4d4d4d"/>
        </g>
        <circle id="Ellipse_10" data-name="Ellipse 10" cx="2.872" cy="2.872" r="2.872" transform="translate(1404.12 2160.146)" fill="#4d4d4d"/>
        <g id="Group_92" data-name="Group 92">
          <g id="Group_91" data-name="Group 91">
            <path id="Path_125" data-name="Path 125" d="M1429.193,2162.791c-1.292,2.929-2.593,5.855-3.876,8.788-.311.712-.023,1.053.345,1.573l1.322,1.872,3.844,5.441,2.562,3.627a1.05,1.05,0,0,0,1.39.39,1.029,1.029,0,0,0,.391-1.39l-7.08-10.023-1.019-1.441-.015,1.028,3.4-7.713.483-1.1a1.054,1.054,0,0,0-.347-1.4,1.028,1.028,0,0,0-1.4.347Z" fill="#4d4d4d"/>
          </g>
          <circle id="Ellipse_11" data-name="Ellipse 11" cx="2.872" cy="2.872" r="2.872" transform="translate(1430.166 2168.461)" fill="#4d4d4d"/>
        </g>
        <g id="Group_94" data-name="Group 94">
          <g id="Group_93" data-name="Group 93">
            <path id="Path_126" data-name="Path 126" d="M1421.447,2190.227c-1.781-2.661-3.553-5.326-5.342-7.981-.434-.645-.877-.584-1.513-.553l-2.289.113-6.654.33-4.435.219a1.051,1.051,0,0,0-1.075.965,1.03,1.03,0,0,0,.965,1.075l12.256-.607,1.763-.087-.86-.564,4.689,7.005.667,1a1.055,1.055,0,0,0,1.37.458,1.029,1.029,0,0,0,.458-1.37Z" fill="#4d4d4d"/>
          </g>
          <circle id="Ellipse_12" data-name="Ellipse 12" cx="2.872" cy="2.872" r="2.872" transform="translate(1409.303 2186.024)" fill="#4d4d4d"/>
        </g>
      </g>
    </g>
    <g id="Group_102" data-name="Group 102">
      <g id="Group_97" data-name="Group 97">
        <path id="Path_127" data-name="Path 127" d="M1456.117,2159.531a5.47,5.47,0,0,1,1.8.274,3.4,3.4,0,0,1,1.266.74.087.087,0,0,1,.025.061.066.066,0,0,1-.074.074.08.08,0,0,1-.061-.025,3.384,3.384,0,0,0-1.217-.7,5.239,5.239,0,0,0-1.742-.268,4.272,4.272,0,0,0-2.445.647,2.182,2.182,0,0,0-.617.624,1.281,1.281,0,0,0-.214.685,1,1,0,0,0,.256.672,1.968,1.968,0,0,0,.71.477,12.715,12.715,0,0,0,2.237.562,12.247,12.247,0,0,1,2.262.587,2.015,2.015,0,0,1,.77.5,1.1,1.1,0,0,1,.306.77,1.8,1.8,0,0,1-1.064,1.566,4.593,4.593,0,0,1-2.286.55,5.721,5.721,0,0,1-3.5-1.04.069.069,0,0,1-.036-.061.075.075,0,0,1,.085-.085.11.11,0,0,1,.049.012,5.514,5.514,0,0,0,3.4,1.015,4.32,4.32,0,0,0,2.2-.538,1.64,1.64,0,0,0,.991-1.419.924.924,0,0,0-.27-.66,1.832,1.832,0,0,0-.708-.464,12.331,12.331,0,0,0-2.237-.563,12.518,12.518,0,0,1-2.262-.586,2.117,2.117,0,0,1-.771-.514,1.116,1.116,0,0,1-.306-.782,1.406,1.406,0,0,1,.239-.765,2.514,2.514,0,0,1,.666-.678A4.476,4.476,0,0,1,1456.117,2159.531Z" fill="#4d4d4d"/>
        <path id="Path_128" data-name="Path 128" d="M1456.032,2168.033a6.428,6.428,0,0,1-3.914-1.177.753.753,0,0,1-.321-.626.778.778,0,0,1,.787-.787.928.928,0,0,1,.363.086.742.742,0,0,1,.107.066,4.857,4.857,0,0,0,2.978.875,3.647,3.647,0,0,0,1.849-.444c.64-.364.64-.688.64-.811a.225.225,0,0,0-.074-.174,1.173,1.173,0,0,0-.469-.3,11.249,11.249,0,0,0-2.1-.521,13.05,13.05,0,0,1-2.412-.633,2.772,2.772,0,0,1-1.02-.695,1.809,1.809,0,0,1-.48-1.245,2.107,2.107,0,0,1,.349-1.143,3.2,3.2,0,0,1,.851-.871,5.18,5.18,0,0,1,2.95-.8,6.167,6.167,0,0,1,2.035.314,4.079,4.079,0,0,1,1.524.9.871.871,0,0,1,.237.563.768.768,0,0,1-.776.776.872.872,0,0,1-.567-.241,2.717,2.717,0,0,0-.944-.52,4.557,4.557,0,0,0-1.509-.229,3.606,3.606,0,0,0-2.05.526,1.506,1.506,0,0,0-.417.415.6.6,0,0,0-.107.313.3.3,0,0,0,.084.211,1.268,1.268,0,0,0,.46.294,11.685,11.685,0,0,0,2.086.516,12.692,12.692,0,0,1,2.415.634,2.625,2.625,0,0,1,1.016.682,1.792,1.792,0,0,1,.48,1.232,2.456,2.456,0,0,1-1.416,2.174A5.3,5.3,0,0,1,1456.032,2168.033Zm-3.113-2.33.048.035Z" fill="#4d4d4d"/>
      </g>
      <g id="Group_98" data-name="Group 98">
        <path id="Path_129" data-name="Path 129" d="M1466.167,2159.531a3.9,3.9,0,0,1,2.83,1.143,3.836,3.836,0,0,1,0,5.513,3.9,3.9,0,0,1-2.83,1.144,3.739,3.739,0,0,1-1.963-.526,3.658,3.658,0,0,1-1.356-1.418,4.2,4.2,0,0,1,0-3.912,3.661,3.661,0,0,1,1.356-1.419A3.74,3.74,0,0,1,1466.167,2159.531Zm0,.159a3.457,3.457,0,0,0-2.611,1.081,3.94,3.94,0,0,0,0,5.319,3.458,3.458,0,0,0,2.611,1.082,3.745,3.745,0,0,0,2.72-1.1,3.689,3.689,0,0,0,0-5.293A3.744,3.744,0,0,0,1466.167,2159.69Z" fill="#4d4d4d"/>
        <path id="Path_130" data-name="Path 130" d="M1466.167,2168.033a4.445,4.445,0,0,1-2.325-.627,4.366,4.366,0,0,1-1.612-1.685,4.91,4.91,0,0,1,0-4.581,4.379,4.379,0,0,1,1.612-1.685,4.438,4.438,0,0,1,2.325-.626,4.6,4.6,0,0,1,3.321,1.343,4.539,4.539,0,0,1,0,6.517A4.593,4.593,0,0,1,1466.167,2168.033Zm0-7.641a2.756,2.756,0,0,0-2.1.865,3.236,3.236,0,0,0,0,4.348,2.759,2.759,0,0,0,2.1.865,3.043,3.043,0,0,0,2.229-.894,2.988,2.988,0,0,0,0-4.29A3.04,3.04,0,0,0,1466.167,2160.392Z" fill="#4d4d4d"/>
      </g>
      <g id="Group_99" data-name="Group 99">
        <path id="Path_131" data-name="Path 131" d="M1473.233,2159.531c.05,0,.074.028.074.085v7.556h5.379c.057,0,.086.026.086.079s-.029.08-.086.08h-5.453a.076.076,0,0,1-.085-.086v-7.629A.075.075,0,0,1,1473.233,2159.531Z" fill="#4d4d4d"/>
        <path id="Path_132" data-name="Path 132" d="M1478.686,2168.033h-5.453a.779.779,0,0,1-.787-.788v-7.629a.782.782,0,1,1,1.563,0v6.854h4.677a.782.782,0,1,1,0,1.563Z" fill="#4d4d4d"/>
      </g>
      <g id="Group_100" data-name="Group 100">
        <path id="Path_133" data-name="Path 133" d="M1484.677,2159.531a.089.089,0,0,1,.086.049l3.264,7.641a.035.035,0,0,1,.012.024.076.076,0,0,1-.086.086.078.078,0,0,1-.073-.049l-3.2-7.458-3.192,7.458a.078.078,0,0,1-.073.049.076.076,0,0,1-.085-.086.035.035,0,0,1,.012-.024l3.264-7.641A.078.078,0,0,1,1484.677,2159.531Z" fill="#4d4d4d"/>
        <path id="Path_134" data-name="Path 134" d="M1487.953,2168.033a.784.784,0,0,1-.7-.435l-2.575-5.993-2.547,5.953a.8.8,0,0,1-.719.475.779.779,0,0,1-.787-.788.749.749,0,0,1,.074-.314l3.259-7.627a.811.811,0,0,1,1.431-.041l3.275,7.663a.74.74,0,0,1,.077.319A.779.779,0,0,1,1487.953,2168.033Zm-6.614-.812h0Z" fill="#4d4d4d"/>
      </g>
      <g id="Group_101" data-name="Group 101">
        <path id="Path_135" data-name="Path 135" d="M1491.108,2159.531h2.726a3.71,3.71,0,0,1,1.809.4,1.972,1.972,0,0,1,0,3.435,3.239,3.239,0,0,1-1.394.392l2.385,3.435a.111.111,0,0,1,.012.049.076.076,0,0,1-.085.086.071.071,0,0,1-.061-.037l-2.446-3.521a2.012,2.012,0,0,1-.22.012h-2.641v3.46a.085.085,0,1,1-.17,0V2163.7c0-.049.028-.074.085-.074h2.726a3.458,3.458,0,0,0,1.736-.4,1.816,1.816,0,0,0,0-3.142,3.5,3.5,0,0,0-1.736-.391h-2.726c-.057,0-.085-.027-.085-.08S1491.051,2159.531,1491.108,2159.531Z" fill="#4d4d4d"/>
        <path id="Path_136" data-name="Path 136" d="M1496.561,2168.033a.773.773,0,0,1-.65-.357l-2.215-3.189h-1.8v2.758a.788.788,0,1,1-1.575,0V2163.7a.774.774,0,0,1,.788-.776h2.726a2.793,2.793,0,0,0,1.388-.311,1.114,1.114,0,0,0,.008-1.918,2.838,2.838,0,0,0-1.4-.3h-2.726a.782.782,0,1,1,0-1.563h2.726a4.409,4.409,0,0,1,2.148.49,2.675,2.675,0,0,1,0,4.666,3.289,3.289,0,0,1-.548.249l1.777,2.562a.583.583,0,0,1,.052.086.927.927,0,0,1,.086.363A.779.779,0,0,1,1496.561,2168.033Zm.5-1.166.018.027A.261.261,0,0,0,1497.058,2166.867Z" fill="#4d4d4d"/>
      </g>
      <path id="Path_137" data-name="Path 137" d="M1451.98,2187.874l6.206-13.843a1.861,1.861,0,0,1,1.766-1.193h.143a1.83,1.83,0,0,1,1.742,1.193l6.2,13.843a1.266,1.266,0,0,1,.167.62,1.375,1.375,0,0,1-1.384,1.408,1.512,1.512,0,0,1-1.432-1.026l-1.36-3.127h-8.115l-1.408,3.222a1.41,1.41,0,0,1-1.361.931,1.345,1.345,0,0,1-1.36-1.36A1.5,1.5,0,0,1,1451.98,2187.874Zm10.931-4.726-2.935-6.754-2.936,6.754Z" fill="#4d4d4d"/>
      <path id="Path_138" data-name="Path 138" d="M1471.386,2174.556a1.457,1.457,0,0,1,1.479-1.48h5.108c3.914,0,6.348,2.22,6.348,5.585v.048c0,3.747-3.007,5.7-6.682,5.7h-3.318v4.033a1.468,1.468,0,0,1-2.935,0Zm6.348,7.208c2.22,0,3.6-1.242,3.6-2.984v-.047c0-1.958-1.408-2.983-3.6-2.983h-3.413v6.014Z" fill="#4d4d4d"/>
      <path id="Path_139" data-name="Path 139" d="M1487.33,2174.556a1.457,1.457,0,0,1,1.48-1.48h5.107c3.915,0,6.349,2.22,6.349,5.585v.048c0,3.747-3.008,5.7-6.683,5.7h-3.317v4.033a1.468,1.468,0,0,1-2.936,0Zm6.348,7.208c2.22,0,3.6-1.242,3.6-2.984v-.047c0-1.958-1.408-2.983-3.6-2.983h-3.412v6.014Z" fill="#4d4d4d"/>
    </g>
  </g>
</svg>
